<svg width="86" height="80" viewBox="0 0 86 80" fill="none" xmlns="http://www.w3.org/2000/svg">
<path d="M10.325 2.35687L21.0181 6.21458C21.1758 6.26873 21.3191 6.2958 21.4768 6.2958C21.9928 6.2958 22.4802 5.99801 22.6808 5.51072C22.9388 4.88807 22.6092 4.18424 21.9355 3.94055L11.2424 0.082842C10.583 -0.160804 9.83771 0.150522 9.57965 0.786709C9.32163 1.40936 9.66565 2.11318 10.325 2.35687Z" fill="url(#paint0_linear_1041_981)"/>
<path d="M10.7837 22.1321C10.9414 22.1321 11.0991 22.105 11.2424 22.0509L21.9355 18.1931C22.5948 17.9495 22.9389 17.2456 22.6809 16.623C22.4228 16.0004 21.6774 15.6754 21.0181 15.9191L10.325 19.7768C9.66567 20.0205 9.32161 20.7244 9.57967 21.347C9.78034 21.8343 10.2677 22.1321 10.7837 22.1321Z" fill="url(#paint1_linear_1041_981)"/>
<path d="M64.5079 6.3098C64.6655 6.3098 64.8232 6.28273 64.9665 6.22859L75.6596 2.37088C76.319 2.12723 76.663 1.42332 76.405 0.800711C76.1469 0.178102 75.4015 -0.146846 74.7422 0.0968436L64.0492 3.95455C63.3898 4.1982 63.0457 4.90211 63.3038 5.52472C63.5045 6.01201 63.9918 6.3098 64.5079 6.3098Z" fill="url(#paint2_linear_1041_981)"/>
<path d="M64.0491 18.1928L74.7422 22.0505C74.8999 22.1047 75.0432 22.1317 75.2009 22.1317C75.7169 22.1317 76.2043 21.8339 76.405 21.3467C76.663 20.724 76.3333 20.0202 75.6596 19.7765L64.9665 15.9188C64.2928 15.6751 63.5618 15.9865 63.3038 16.6226C63.0458 17.2453 63.3898 17.9491 64.0491 18.1928Z" fill="url(#paint3_linear_1041_981)"/>
<path d="M36.9857 67.5324C36.9284 66.7879 36.57 66.0976 35.968 65.6103C35.4233 65.1636 34.7352 64.9199 34.0185 64.9199C33.1585 64.9199 32.3414 65.2719 31.7824 65.881L27.7402 70.2801C27.2242 70.8486 26.9662 71.5661 27.0235 72.3241C27.0808 73.0686 27.4392 73.7588 28.0412 74.2462C28.5859 74.6929 29.274 74.9366 29.9907 74.9366C30.8507 74.9366 31.6678 74.5846 32.2411 73.9755L36.2833 69.5899C36.785 69.0078 37.043 68.2904 36.9857 67.5324Z" fill="url(#paint4_linear_1041_981)"/>
<path d="M33.0007 58.6259C32.456 58.1792 31.7679 57.9355 31.0513 57.9355H30.8363C30.0479 57.9897 29.3169 58.3281 28.8008 58.8966L21.2609 67.0723C20.1859 68.2364 20.3149 70.0096 21.562 71.0383C22.1067 71.485 22.7947 71.7286 23.4828 71.7286C23.5688 71.7286 23.6405 71.7286 23.7121 71.7151C24.5005 71.661 25.2315 71.3226 25.7476 70.754L33.2874 62.5783C34.3768 61.4278 34.2478 59.6546 33.0007 58.6259Z" fill="url(#paint5_linear_1041_981)"/>
<path d="M37.9319 70.8751H37.7313C36.9429 70.9292 36.2262 71.2676 35.6958 71.8361L34.3054 73.3386C33.2303 74.5028 33.3594 76.2894 34.6064 77.2911C35.1511 77.7378 35.8392 77.9815 36.5558 77.9815H36.7565C37.5449 77.9273 38.2759 77.5889 38.792 77.0204L40.1681 75.5179C40.6841 74.9494 40.9421 74.2319 40.8848 73.4739C40.8275 72.7295 40.4691 72.0392 39.867 71.5518C39.351 71.1322 38.6487 70.8751 37.9319 70.8751Z" fill="url(#paint6_linear_1041_981)"/>
<path d="M27.2965 58.9105C27.8126 58.342 28.0706 57.6245 28.0132 56.8801C27.9559 56.1356 27.5976 55.4453 26.9955 54.9579C26.4508 54.5112 25.7771 54.2676 25.0604 54.2676H24.8453C24.057 54.3217 23.326 54.6601 22.8099 55.2286L16.4742 62.1049C15.3991 63.269 15.5282 65.0422 16.7609 66.0709C17.3056 66.5176 17.9937 66.7612 18.7103 66.7612C18.782 66.7612 18.8537 66.7612 18.9253 66.7477C19.7137 66.6935 20.4447 66.3551 20.9608 65.7866L27.2965 58.9105Z" fill="url(#paint7_linear_1041_981)"/>
<path d="M36.5136 24.5817L37.0297 31.0248H48.9557L49.4717 24.5817L50.9051 31.0248H56.3378V25.8135C56.3378 21.5903 53.7864 17.9356 50.0594 16.1353C49.787 15.9999 49.4717 16.0405 49.228 16.2165C47.4649 17.4211 45.3148 18.1386 42.9926 18.1386C40.6561 18.1386 38.5061 17.4212 36.7572 16.2165C36.5136 16.054 36.1982 16.0134 35.9259 16.1353C32.199 17.9355 29.6475 21.5903 29.6475 25.8135V31.0248H35.0801L36.5136 24.5817Z" fill="url(#paint8_linear_1041_981)"/>
<path d="M50.188 8.04116C50.188 11.794 46.9664 14.8362 42.9922 14.8362C39.018 14.8362 35.7964 11.794 35.7964 8.04116C35.7964 4.28827 39.018 1.24609 42.9922 1.24609C46.9664 1.24609 50.188 4.28827 50.188 8.04116Z" fill="url(#paint9_linear_1041_981)"/>
<path d="M65.7543 61.306C63.6902 59.6276 58.3006 55.2284 58.0998 55.066C55.8064 53.1168 52.0365 49.5704 49.9867 47.6348L49.2843 46.9715L48.8399 47.8243C47.9369 49.5434 46.5608 51.8309 45.113 52.9815C43.9377 53.9154 42.6619 54.4298 41.5008 54.4298C41.1568 54.4298 40.8415 54.3892 40.5261 54.2945C39.6231 54.0373 38.4047 53.2657 37.7309 51.0729C36.6272 47.5129 38.5767 43.1814 41.0995 41.0567L41.8449 40.4205L40.9705 39.9603C39.9241 39.4054 38.849 39.1211 37.7883 39.1211C36.0825 39.1211 34.6204 39.825 33.316 40.583L33.1153 40.7048C32.671 40.962 31.8539 41.2733 30.5209 41.2733C29.3025 41.2733 27.9407 41.0297 26.4212 40.5288L14.7393 57.5845C15.3126 58.1259 15.886 58.6944 16.4307 59.3036L16.9754 59.9127L21.935 54.539C22.7234 53.6862 23.8558 53.1989 25.0455 53.1989C26.0345 53.1989 26.9949 53.5373 27.7403 54.1464C28.457 54.742 28.9301 55.5407 29.0734 56.4611L29.2024 57.2056L29.9621 57.0161C30.2201 56.9484 30.4781 56.9078 30.7505 56.8943C30.8508 56.8943 30.9511 56.8807 31.0515 56.8807C32.0549 56.8807 32.9866 57.2056 33.7463 57.8418C35.2944 59.1142 35.5954 61.307 34.4343 62.9448L33.8466 63.7705L34.8787 63.9871C35.5954 64.136 36.2117 64.4202 36.7135 64.8263C37.5448 65.5031 38.0465 66.4506 38.1182 67.4928C38.1612 67.9937 38.0895 68.5081 37.9175 68.9818L37.6451 69.7534L38.4909 69.8617C39.2792 69.9699 40.0102 70.2813 40.6123 70.7821C41.8737 71.8243 42.3467 73.4622 41.8021 74.9783L41.6587 75.3979L46.2887 79.4451C46.7187 79.8106 47.2921 80.0001 47.8941 80.0001H48.0518C48.7112 79.9595 49.3132 79.6753 49.7576 79.2015L50.0729 78.8496C50.6033 78.2811 50.8613 77.5636 50.804 76.8191C50.7466 76.0882 50.4026 75.4114 49.8149 74.9106L45.9017 71.662C45.7871 71.5672 45.7154 71.4319 45.7011 71.2965C45.6867 71.1476 45.7441 71.0123 45.8444 70.904C45.9591 70.7821 46.1024 70.7145 46.2744 70.7145C46.3748 70.7145 46.5181 70.7415 46.6471 70.8498L51.9507 75.2355C52.4954 75.6957 53.1835 75.9258 53.9145 75.9258H54.1008C54.8892 75.8716 55.6202 75.5333 56.1363 74.9782L56.466 74.6263C57.369 73.6517 57.2687 72.1763 56.2223 71.3235L48.6539 65.0564C48.5392 64.9616 48.4675 64.8263 48.4532 64.6909C48.4389 64.542 48.4962 64.4067 48.5965 64.2984C48.7112 64.1766 48.8545 64.1089 49.0266 64.1089C49.1269 64.1089 49.2702 64.136 49.3992 64.2442L57.8851 71.2559C58.4298 71.7161 59.1179 71.9462 59.8631 71.9462H60.0351C60.8235 71.8921 61.5545 71.5537 62.0706 70.9987C62.601 70.4301 62.859 69.7127 62.8017 68.9682C62.7443 68.2237 62.386 67.5335 61.7983 67.0461L52.7964 59.6013C52.6817 59.5065 52.6101 59.3712 52.5957 59.2358C52.5814 59.0869 52.6387 58.9516 52.7391 58.8433C52.8537 58.7215 52.9971 58.6538 53.1691 58.6538C53.2694 58.6538 53.4128 58.6809 53.5418 58.7891L61.9415 65.7466C62.4719 66.1797 63.1599 66.4098 63.8624 66.4098C64.7224 66.4098 65.5394 66.0579 66.0985 65.4487C67.1736 64.2846 67.0589 62.5115 65.8118 61.4827L65.7543 61.306Z" fill="url(#paint10_linear_1041_981)"/>
<path d="M23.5126 33.4078L18.2662 30.1998C16.4315 29.0763 13.966 29.5771 12.7762 31.3097L0.635559 49.0419C-0.554199 50.7745 -0.0238124 53.1027 1.81091 54.2262L7.05726 57.4342C8.89203 58.5577 11.3575 58.0568 12.5473 56.3243L24.6879 38.592C25.8777 36.8594 25.3473 34.5313 23.5126 33.4078Z" fill="url(#paint11_linear_1041_981)"/>
<path d="M56.982 40.7577C55.4482 40.7306 54.1868 40.311 53.0688 39.932C51.9221 39.553 50.8327 39.1875 49.4709 39.1875C48.3672 39.1875 47.1917 39.4311 45.8874 39.9455L45.443 40.1215C44.6403 40.4328 43.8662 40.7306 43.0922 41.0554C40.5408 42.2466 37.6309 46.8623 38.835 50.7606C39.265 52.1548 39.9387 52.9805 40.8561 53.2512C41.0568 53.3053 41.2718 53.3324 41.5011 53.3324C42.3755 53.3324 43.3932 52.9128 44.3537 52.1412C45.5147 51.2073 46.9481 49.1227 48.2669 46.402C48.4102 46.1042 48.7112 45.8876 49.0552 45.8335C49.1126 45.82 49.1699 45.82 49.2416 45.82C49.5283 45.82 49.8006 45.9282 50.0013 46.1177C51.8074 47.8368 56.294 52.0735 58.9028 54.2934C59.4045 54.7672 65.3818 59.7078 66.3135 60.371L66.4568 60.4658L66.4998 60.4929L66.6575 60.6147C66.7435 60.6824 66.8009 60.7636 66.8725 60.8313L67.5606 61.5487L68.7934 60.0461C69.4957 59.1798 70.2268 58.2594 71.0868 57.366L59.5048 40.4593C58.7021 40.6488 57.8563 40.7577 56.982 40.7577Z" fill="url(#paint12_linear_1041_981)"/>
<path d="M85.3642 49.0556L73.2235 31.3234C72.0338 29.5908 69.5826 29.09 67.7335 30.2135L62.4872 33.4214C60.6524 34.5449 60.1221 36.8596 61.3118 38.6057L73.4525 56.338C74.6423 58.0706 77.0934 58.5714 78.9425 57.4479L84.1889 54.2399C86.0236 53.1029 86.554 50.7882 85.3642 49.0556Z" fill="url(#paint13_linear_1041_981)"/>
<defs>
<linearGradient id="paint0_linear_1041_981" x1="16.1311" y1="0" x2="16.1311" y2="6.2958" gradientUnits="userSpaceOnUse">
<stop stop-color="#36B2F1"/>
<stop offset="1" stop-color="#1F678B"/>
</linearGradient>
<linearGradient id="paint1_linear_1041_981" x1="16.1303" y1="15.8379" x2="16.1303" y2="22.1321" gradientUnits="userSpaceOnUse">
<stop stop-color="#36B2F1"/>
<stop offset="1" stop-color="#1F678B"/>
</linearGradient>
<linearGradient id="paint2_linear_1041_981" x1="69.8544" y1="0.015625" x2="69.8544" y2="6.3098" gradientUnits="userSpaceOnUse">
<stop stop-color="#36B2F1"/>
<stop offset="1" stop-color="#1F678B"/>
</linearGradient>
<linearGradient id="paint3_linear_1041_981" x1="69.8552" y1="15.8359" x2="69.8552" y2="22.1317" gradientUnits="userSpaceOnUse">
<stop stop-color="#36B2F1"/>
<stop offset="1" stop-color="#1F678B"/>
</linearGradient>
<linearGradient id="paint4_linear_1041_981" x1="32.0046" y1="64.9199" x2="32.0046" y2="74.9366" gradientUnits="userSpaceOnUse">
<stop stop-color="#36B2F1"/>
<stop offset="1" stop-color="#1F678B"/>
</linearGradient>
<linearGradient id="paint5_linear_1041_981" x1="27.2802" y1="57.9355" x2="27.2802" y2="71.7286" gradientUnits="userSpaceOnUse">
<stop stop-color="#36B2F1"/>
<stop offset="1" stop-color="#1F678B"/>
</linearGradient>
<linearGradient id="paint6_linear_1041_981" x1="37.2351" y1="70.875" x2="37.2351" y2="77.9815" gradientUnits="userSpaceOnUse">
<stop stop-color="#36B2F1"/>
<stop offset="1" stop-color="#1F678B"/>
</linearGradient>
<linearGradient id="paint7_linear_1041_981" x1="21.8831" y1="54.2676" x2="21.8831" y2="66.7612" gradientUnits="userSpaceOnUse">
<stop stop-color="#36B2F1"/>
<stop offset="1" stop-color="#1F678B"/>
</linearGradient>
<linearGradient id="paint8_linear_1041_981" x1="42.9926" y1="16.0547" x2="42.9926" y2="31.0248" gradientUnits="userSpaceOnUse">
<stop stop-color="#36B2F1"/>
<stop offset="1" stop-color="#1F678B"/>
</linearGradient>
<linearGradient id="paint9_linear_1041_981" x1="42.9922" y1="1.24609" x2="42.9922" y2="14.8362" gradientUnits="userSpaceOnUse">
<stop stop-color="#36B2F1"/>
<stop offset="1" stop-color="#1F678B"/>
</linearGradient>
<linearGradient id="paint10_linear_1041_981" x1="40.7859" y1="39.1211" x2="40.7859" y2="80.0001" gradientUnits="userSpaceOnUse">
<stop stop-color="#36B2F1"/>
<stop offset="1" stop-color="#1F678B"/>
</linearGradient>
<linearGradient id="paint11_linear_1041_981" x1="12.6618" y1="29.5996" x2="12.6618" y2="58.0343" gradientUnits="userSpaceOnUse">
<stop stop-color="#36B2F1"/>
<stop offset="1" stop-color="#1F678B"/>
</linearGradient>
<linearGradient id="paint12_linear_1041_981" x1="54.8208" y1="39.1875" x2="54.8208" y2="61.5487" gradientUnits="userSpaceOnUse">
<stop stop-color="#36B2F1"/>
<stop offset="1" stop-color="#1F678B"/>
</linearGradient>
<linearGradient id="paint13_linear_1041_981" x1="73.338" y1="29.6133" x2="73.338" y2="58.048" gradientUnits="userSpaceOnUse">
<stop stop-color="#36B2F1"/>
<stop offset="1" stop-color="#1F678B"/>
</linearGradient>
</defs>
</svg>
