<svg width="87" height="81" viewBox="0 0 87 81" fill="none" xmlns="http://www.w3.org/2000/svg">
<path d="M48.1414 16.7592C48.1414 21.1523 46.3937 25.367 43.2826 28.473C40.1715 31.579 35.9497 33.3236 31.5529 33.3236C9.59286 32.5675 9.59684 0.955496 31.5529 0.203096V0.199219C35.9496 0.199219 40.1714 1.94403 43.2826 5.04982C46.3938 8.1556 48.1414 12.3698 48.1414 16.7592ZM52.6818 77.0484C49.629 74.8887 47.2325 71.9303 45.7527 68.4988C44.2729 65.0672 43.768 61.2985 44.2923 57.5999L46.0013 45.8126C46.2033 44.1996 46.883 42.6875 47.9589 41.4699C28.1346 28.969 -0.0467371 43.4861 0.201837 68.1772C0.131926 72.3725 2.29921 76.2926 5.88802 78.4755C9.48071 80.6585 13.9628 80.7748 17.6645 78.7857C26.4345 74.5361 36.6724 74.5361 45.4431 78.7857C48.6163 80.4064 52.3372 80.5616 55.6346 79.22C54.4539 78.3514 53.4285 77.607 52.6828 77.0486L52.6818 77.0484ZM80.2735 71.9923L69.5848 79.685C68.7925 80.2744 67.705 80.2744 66.9126 79.685C64.3026 77.7618 58.834 73.8844 56.2548 71.9923C54.1419 70.4801 52.4873 68.4212 51.462 66.0366C50.4367 63.6559 50.0871 61.0386 50.4444 58.4679L52.1534 46.6181C52.2194 46.1179 52.4602 45.6565 52.837 45.3153C53.3147 44.85 53.975 44.6213 54.6392 44.6949C58.9737 45.3774 63.4014 44.2801 66.9127 41.6551C67.6895 41.0192 68.8081 41.0192 69.5849 41.6551C73.1815 44.2297 77.6364 45.3076 82.0136 44.6639C83.1982 44.5825 84.2353 45.4432 84.3751 46.6181L86.0529 58.4679C86.8142 63.7024 84.5847 68.9211 80.2735 71.9923ZM76.4516 54.9938C75.8729 54.4122 75.0845 54.0865 74.2611 54.0865C73.4377 54.0865 72.6492 54.4122 72.0706 54.9938L67.5341 59.4915L65.0483 57.01C63.8249 55.8429 61.8906 55.8701 60.6944 57.0681C59.5021 58.2701 59.4904 60.201 60.6672 61.4147L65.328 66.0676C65.9106 66.6569 66.7068 66.9904 67.5341 66.9904C68.3615 66.9904 69.1576 66.6569 69.7403 66.0676L76.4518 59.3674C77.0344 58.7897 77.3606 58.0026 77.3606 57.1806C77.3606 56.3586 77.0342 55.5715 76.4516 54.9938Z" fill="url(#paint0_linear_1041_1002)"/>
<defs>
<linearGradient id="paint0_linear_1041_1002" x1="43.2002" y1="0.199219" x2="43.2002" y2="80.1992" gradientUnits="userSpaceOnUse">
<stop stop-color="#36B2F1"/>
<stop offset="1" stop-color="#1F678B"/>
</linearGradient>
</defs>
</svg>
