<svg width="86" height="80" viewBox="0 0 86 80" fill="none" xmlns="http://www.w3.org/2000/svg">
<path d="M36.1197 78.0033C36.1197 78.5342 35.895 79.039 35.5008 79.413C35.1066 79.7869 34.5744 80 34.0146 80H2.101C0.942121 80 0 79.1064 0 78.0034C0.00394165 72.5293 2.77116 67.3842 7.44231 64.1651C10.0755 67.1377 13.9622 68.8539 18.0543 68.8539C22.1464 68.8539 26.0326 67.1376 28.6663 64.1651C33.3374 67.3845 36.1078 72.5256 36.1197 78.0033ZM52.8651 68.7416C49.6682 69.639 46.3492 70.0915 43.0143 70.0876C41.8515 70.0876 40.9133 70.9813 40.9133 72.0805C40.9133 73.1835 41.8515 74.0771 43.0143 74.0771C46.7512 74.0771 50.4684 73.5686 54.0521 72.5703C55.1677 72.26 55.8063 71.1495 55.4752 70.0914C55.148 69.0369 53.9767 68.4313 52.8651 68.7416ZM44.9261 57.5137L48.0796 55.8498C49.7943 54.93 51.0084 53.3595 51.4224 51.5312L52.9046 45.0289V45.0327C53.3185 43.1257 52.8178 41.1478 51.5328 39.6297C50.2517 38.1117 48.324 37.2144 46.2743 37.1844H46.093C45.415 37.1732 44.7645 36.9152 44.2757 36.4665L41.343 33.7856C38.8833 31.4673 34.9886 31.2468 32.2609 33.2771C29.5292 35.3036 28.8195 38.9418 30.6014 41.761L33.8613 47.1864H33.8574C34.0427 47.493 34.157 47.8333 34.1964 48.181L34.7325 52.6866V52.6903C35.1306 55.9807 38.0674 58.4672 41.5638 58.4709C42.7543 58.4298 43.9091 58.1007 44.9261 57.5137ZM85.4173 57.1248C84.9364 56.6724 84.2506 56.4667 83.5804 56.5789L78.7556 57.3267C79.4336 54.4177 78.791 51.3741 76.9778 48.94L73.2763 43.9559C72.8821 43.4249 72.2436 43.1071 71.5577 43.1071C70.8757 43.1071 70.2332 43.4249 69.839 43.9559L66.1375 48.94H66.1415C64.3282 51.3742 63.6857 54.4178 64.3637 57.3267L59.5822 56.5602V56.5565C58.912 56.4481 58.2261 56.65 57.7413 57.1061C57.2565 57.5623 57.0397 58.2128 57.154 58.8523L58.0567 63.8364C58.7544 67.6577 61.9118 70.6527 65.9405 71.3145L69.4527 71.8828V77.9962C69.4527 79.0954 70.3909 79.9891 71.5537 79.9891C72.7166 79.9891 73.6547 79.0955 73.6547 77.9962V71.894L77.1749 71.3257H77.1788C81.2075 70.6602 84.361 67.6689 85.0626 63.8476L85.9653 58.8634V58.8597C86.0875 58.2315 85.8825 57.5885 85.4173 57.1248ZM18.0581 46.4463C14.1281 46.4426 10.5843 48.686 9.07849 52.1297C7.57267 55.5734 8.40048 59.5405 11.1795 62.1764C13.9585 64.8124 18.1409 65.5977 21.7713 64.1693C25.4018 62.741 27.7669 59.3796 27.763 55.6518C27.7551 50.5704 23.4152 46.4538 18.0581 46.4463ZM6.72955 44.8534C6.84386 44.8609 6.95818 44.8609 7.07644 44.8534C7.62436 44.7674 8.11705 44.4758 8.44431 44.0458C8.76754 43.6158 8.90157 43.0811 8.81091 42.5576C8.49161 40.7815 8.33 38.9868 8.32605 37.1846C8.32605 36.3059 8.37729 35.4385 8.44036 34.5821L20.6447 33.5838C23.4947 33.3594 25.8283 31.3479 26.3329 28.6781L26.6049 27.2722C26.6995 26.8011 26.9675 26.3748 27.3617 26.0757L31.7136 22.7442V22.7479C31.9935 22.5273 32.3246 22.3852 32.6833 22.3291L37.2756 21.5813C40.642 21.1925 43.086 18.347 42.8022 15.1426C42.5184 11.9345 39.6132 9.51534 36.2232 9.66486H31.5363C30.9253 8.53938 30.338 7.41017 29.9792 6.67361C39.7552 2.9233 50.8046 3.62253 59.9695 8.56934L58.4361 10.2631C55.6531 13.1272 53.6624 16.6008 52.6454 20.3731V20.5114C52.0975 22.5716 52.5824 24.7515 53.9581 26.4266L54.577 27.2118C56.1498 29.0963 58.641 30.0722 61.1599 29.7843C61.9798 29.6983 62.8037 29.9301 63.4383 30.4349C64.073 30.9359 64.4593 31.6651 64.5105 32.4465C64.7589 36.0472 67.9085 38.8515 71.7124 38.859C73.9277 38.8478 76.0642 38.0588 77.704 36.6455V37.2138C77.704 38.8478 77.5779 40.4818 77.3256 42.1008C77.1561 43.2 77.9563 44.2246 79.1191 44.3891C80.278 44.5499 81.3582 43.7908 81.5316 42.6878C81.7957 40.8632 81.9218 39.0236 81.91 37.1839C81.9928 26.827 77.4872 16.9143 69.4886 9.86259C61.4866 2.81445 50.733 -0.719247 39.8496 0.122132C28.9662 0.967157 18.9617 6.10836 12.2722 14.2973C5.58277 22.4859 2.83128 32.9589 4.68798 43.1664C4.84565 44.1236 5.70862 44.8348 6.72955 44.8534Z" fill="url(#paint0_linear_1041_1010)"/>
<defs>
<linearGradient id="paint0_linear_1041_1010" x1="43" y1="0" x2="43" y2="80" gradientUnits="userSpaceOnUse">
<stop stop-color="#36B2F1"/>
<stop offset="1" stop-color="#1F678B"/>
</linearGradient>
</defs>
</svg>
