<svg width="86" height="80" viewBox="0 0 86 80" fill="none" xmlns="http://www.w3.org/2000/svg">
<path d="M23.1072 57.3902H23.1704C28.1891 57.3902 32.7271 54.0586 34.1062 49.1047C36.4722 40.5978 29.6485 32.881 21.4959 34.0904C16.4857 34.8365 12.4918 39.0748 11.8887 44.2499C11.0705 51.3165 16.4053 57.3336 23.1072 57.3902Z" fill="url(#paint0_linear_1041_1017)"/>
<path d="M23.2594 59.854H23.1076C15.1704 59.8756 7.87477 63.7538 3.56372 70.226C1.59843 73.1672 0.388027 76.5248 0 79.9996H46.37C45.1427 68.63 35.2327 59.8895 23.2594 59.854Z" fill="url(#paint1_linear_1041_1017)"/>
<path d="M57.2465 29.1373H57.4827C65.4409 29.0809 71.8518 22.2399 71.5397 13.9808C71.2488 6.50645 65.2474 0.320269 57.9685 0.0126531C49.8922 -0.330044 43.2075 6.3331 43.2075 14.5705C43.2033 22.5654 49.4948 29.0729 57.2465 29.1373Z" fill="url(#paint2_linear_1041_1017)"/>
<path d="M57.2462 31.6055C49.3006 31.6272 41.7769 34.8373 36.3992 40.4462C36.2136 40.6371 36.163 40.9017 36.2473 41.1577C36.7112 42.5805 36.9938 44.0901 36.9938 45.6778C36.9938 49.929 35.1593 53.7421 32.2746 56.3407C32.1143 56.4838 32.2113 56.7615 32.4264 56.7615H85.9998C84.608 42.58 72.3314 31.6536 57.4646 31.6103L57.2462 31.6055Z" fill="url(#paint3_linear_1041_1017)"/>
<path d="M18.6825 28.1602C18.9102 28.4032 19.2097 28.5246 19.526 28.5246C19.8507 28.5246 20.1501 28.4032 20.3779 28.1602L23.8319 24.564C24.2958 24.0738 24.2874 23.2974 23.8192 22.8202C23.3427 22.33 22.5878 22.343 22.1239 22.8202L20.7195 24.2951V18.5863C20.7195 12.5348 25.4936 7.62419 31.3768 7.62419H36.5684C37.239 7.62419 37.7662 7.06893 37.7662 6.39217C37.7662 5.70244 37.239 5.16016 36.5684 5.16016H31.3768C24.1651 5.16016 18.3109 11.1813 18.3109 18.5997V24.2955L16.9065 22.8206C16.4425 22.3434 15.6876 22.3304 15.2111 22.8206C14.7345 23.2978 14.7345 24.0743 15.1984 24.5645L18.6825 28.1602Z" fill="url(#paint4_linear_1041_1017)"/>
<path d="M28.1842 21.2852V24.916L27.4841 24.1829C27.0202 23.6927 26.2526 23.6927 25.7887 24.1699C25.3121 24.6471 25.3121 25.4236 25.7761 25.9137L28.53 28.7768C28.7578 29.0197 29.0572 29.1412 29.3819 29.1412C29.694 29.1412 29.9977 29.0197 30.2254 28.7768L32.9794 25.9137C33.4433 25.4235 33.4433 24.6471 32.9667 24.1699C32.5028 23.6927 31.7353 23.6927 31.2714 24.1829L30.5713 24.916V21.2852C30.5713 18.4742 32.8065 16.175 35.5394 16.175H38.1542C38.8248 16.175 39.352 15.6327 39.352 14.943C39.352 14.2532 38.8248 13.7109 38.1542 13.7109H35.5478C31.4739 13.724 28.1842 17.112 28.1842 21.2852Z" fill="url(#paint5_linear_1041_1017)"/>
<defs>
<linearGradient id="paint0_linear_1041_1017" x1="23.1935" y1="33.9648" x2="23.1935" y2="57.3902" gradientUnits="userSpaceOnUse">
<stop stop-color="#36B2F1"/>
<stop offset="1" stop-color="#1F678B"/>
</linearGradient>
<linearGradient id="paint1_linear_1041_1017" x1="23.185" y1="59.8535" x2="23.185" y2="79.9996" gradientUnits="userSpaceOnUse">
<stop stop-color="#36B2F1"/>
<stop offset="1" stop-color="#1F678B"/>
</linearGradient>
<linearGradient id="paint2_linear_1041_1017" x1="57.3791" y1="0" x2="57.3791" y2="29.1373" gradientUnits="userSpaceOnUse">
<stop stop-color="#36B2F1"/>
<stop offset="1" stop-color="#1F678B"/>
</linearGradient>
<linearGradient id="paint3_linear_1041_1017" x1="59.0973" y1="31.6055" x2="59.0973" y2="56.7615" gradientUnits="userSpaceOnUse">
<stop stop-color="#36B2F1"/>
<stop offset="1" stop-color="#1F678B"/>
</linearGradient>
<linearGradient id="paint4_linear_1041_1017" x1="26.3091" y1="5.16016" x2="26.3091" y2="28.5246" gradientUnits="userSpaceOnUse">
<stop stop-color="#36B2F1"/>
<stop offset="1" stop-color="#1F678B"/>
</linearGradient>
<linearGradient id="paint5_linear_1041_1017" x1="32.3908" y1="13.7109" x2="32.3908" y2="29.1412" gradientUnits="userSpaceOnUse">
<stop stop-color="#36B2F1"/>
<stop offset="1" stop-color="#1F678B"/>
</linearGradient>
</defs>
</svg>
