<svg width="76" height="80" viewBox="0 0 76 80" fill="none" xmlns="http://www.w3.org/2000/svg">
<path fill-rule="evenodd" clip-rule="evenodd" d="M68.222 11.3134H55.6532C55.3443 11.3134 55.048 11.2123 54.8296 11.0324C54.6111 10.8524 54.4884 10.6083 54.4884 10.3538V0H0V73.3668H68.222V11.3134ZM56.8193 1.35736L62.8731 6.34486L62.891 6.35959L66.5744 9.39419H56.8193V1.35736ZM7.77548 75.2861H69.3867C69.6957 75.2861 69.9919 75.185 70.2104 75.005C70.4288 74.8251 70.5515 74.581 70.5515 74.3265V10.3517C70.5519 10.2256 70.5219 10.1008 70.4634 9.98429C70.4048 9.86781 70.3189 9.76202 70.2105 9.67302L66.5195 6.63107H76V80H7.77804V75.2861H7.77548ZM35.5018 30.3407H18.3442C18.0352 30.3407 17.739 30.2396 17.5205 30.0596C17.3021 29.8796 17.1794 29.6355 17.1794 29.381V20.3762C17.1794 20.1217 17.3021 19.8776 17.5205 19.6976C17.739 19.5177 18.0352 19.4165 18.3442 19.4165H35.5018V15.8748C35.5022 15.693 35.5654 15.5151 35.6839 15.3617C35.8024 15.2084 35.9714 15.086 36.1711 15.0088C36.3709 14.9315 36.5932 14.9027 36.8121 14.9256C37.031 14.9486 37.2374 15.0223 37.4074 15.1382L50.6007 24.1305C50.663 24.1722 50.7203 24.2187 50.7718 24.2694C50.8693 24.3664 50.9426 24.4782 50.9876 24.5986C51.0326 24.7189 51.0484 24.8454 51.0341 24.9707C51.0197 25.0961 50.9755 25.2179 50.904 25.3292C50.8325 25.4405 50.7351 25.5391 50.6173 25.6194L37.4534 34.5916C37.2866 34.7175 37.0789 34.8006 36.8557 34.8309C36.6325 34.8611 36.4035 34.8372 36.1965 34.762C35.9896 34.6868 35.8137 34.5635 35.6903 34.4074C35.567 34.2512 35.5015 34.0688 35.5018 33.8824V30.3407ZM19.5102 28.4204V21.3368H36.6666C36.9759 21.3368 37.2725 21.2356 37.4912 21.0555C37.7098 20.8753 37.8327 20.631 37.8327 20.3762V17.9129L48.0502 24.8786L37.8327 31.8443V29.381C37.8327 29.1262 37.7098 28.8819 37.4912 28.7017C37.2725 28.5216 36.9759 28.4204 36.6666 28.4204H19.5102ZM21.1706 41.6415C20.8682 41.6332 20.5815 41.5284 20.3711 41.3493C20.1607 41.1701 20.0431 40.9306 20.0431 40.6813C20.0431 40.432 20.1607 40.1925 20.3711 40.0133C20.5815 39.8342 20.8682 39.7294 21.1706 39.7212H61.4874C61.6437 39.7169 61.7994 39.7386 61.9453 39.7849C62.0912 39.8312 62.2244 39.9013 62.3367 39.9909C62.4491 40.0804 62.5385 40.1877 62.5995 40.3063C62.6606 40.425 62.692 40.5525 62.692 40.6813C62.692 40.8101 62.6606 40.9377 62.5995 41.0563C62.5385 41.1749 62.4491 41.2822 62.3367 41.3718C62.2244 41.4613 62.0912 41.5314 61.9453 41.5777C61.7994 41.624 61.6437 41.6457 61.4874 41.6415H21.1706ZM6.7282 41.6415C6.5719 41.6457 6.41617 41.624 6.27025 41.5777C6.12434 41.5314 5.99122 41.4613 5.87883 41.3718C5.76644 41.2822 5.67707 41.1749 5.61603 41.0563C5.555 40.9377 5.52354 40.8101 5.52354 40.6813C5.52354 40.5525 5.555 40.425 5.61603 40.3063C5.67707 40.1877 5.76644 40.0804 5.87883 39.9909C5.99122 39.9013 6.12434 39.8312 6.27025 39.7849C6.41617 39.7386 6.5719 39.7169 6.7282 39.7212H15.8205C16.1229 39.7294 16.4095 39.8342 16.6199 40.0133C16.8303 40.1925 16.9479 40.432 16.9479 40.6813C16.9479 40.9306 16.8303 41.1701 16.6199 41.3493C16.4095 41.5284 16.1229 41.6332 15.8205 41.6415H6.7282ZM6.7282 47.5654C6.41927 47.5654 6.12301 47.4643 5.90457 47.2844C5.68613 47.1044 5.56341 46.8603 5.56341 46.6058C5.56341 46.3513 5.68613 46.1072 5.90457 45.9273C6.12301 45.7473 6.41927 45.6462 6.7282 45.6462H61.4874C61.7963 45.6462 62.0926 45.7473 62.311 45.9273C62.5295 46.1072 62.6522 46.3513 62.6522 46.6058C62.6522 46.8603 62.5295 47.1044 62.311 47.2844C62.0926 47.4643 61.7963 47.5654 61.4874 47.5654H6.7282ZM50.8995 53.4905C50.7396 53.5002 50.5789 53.4827 50.4275 53.439C50.2762 53.3953 50.1374 53.3263 50.0198 53.2364C49.9023 53.1465 49.8086 53.0375 49.7444 52.9164C49.6803 52.7953 49.6472 52.6646 49.6472 52.5324C49.6472 52.4003 49.6803 52.2696 49.7444 52.1484C49.8086 52.0273 49.9023 51.9184 50.0198 51.8285C50.1374 51.7385 50.2762 51.6696 50.4275 51.6258C50.5789 51.5821 50.7396 51.5646 50.8995 51.5744H61.4874C61.6437 51.5701 61.7994 51.5918 61.9453 51.6381C62.0912 51.6845 62.2244 51.7545 62.3367 51.8441C62.4491 51.9337 62.5385 52.0409 62.5995 52.1596C62.6606 52.2782 62.692 52.4057 62.692 52.5345C62.692 52.6634 62.6606 52.7909 62.5995 52.9095C62.5385 53.0281 62.4491 53.1354 62.3367 53.225C62.2244 53.3146 62.0912 53.3846 61.9453 53.4309C61.7994 53.4773 61.6437 53.4989 61.4874 53.4947L50.8995 53.4905ZM6.7282 53.4905C6.5719 53.4947 6.41617 53.473 6.27025 53.4267C6.12434 53.3804 5.99122 53.3103 5.87883 53.2208C5.76644 53.1312 5.67707 53.0239 5.61603 52.9053C5.555 52.7867 5.52354 52.6592 5.52354 52.5303C5.52354 52.4015 5.555 52.274 5.61603 52.1554C5.67707 52.0367 5.76644 51.9295 5.87883 51.8399C5.99122 51.7503 6.12434 51.6803 6.27025 51.6339C6.41617 51.5876 6.5719 51.5659 6.7282 51.5702H45.5545C45.8569 51.5784 46.1436 51.6832 46.354 51.8624C46.5644 52.0415 46.682 52.281 46.682 52.5303C46.682 52.7796 46.5644 53.0191 46.354 53.1983C46.1436 53.3774 45.8569 53.4822 45.5545 53.4905H6.7282ZM6.7282 59.4144C6.5719 59.4187 6.41617 59.397 6.27025 59.3507C6.12434 59.3044 5.99122 59.2343 5.87883 59.1447C5.76644 59.0552 5.67707 58.9479 5.61603 58.8293C5.555 58.7107 5.52354 58.5831 5.52354 58.4543C5.52354 58.3255 5.555 58.1979 5.61603 58.0793C5.67707 57.9607 5.76644 57.8534 5.87883 57.7639C5.99122 57.6743 6.12434 57.6042 6.27025 57.5579C6.41617 57.5116 6.5719 57.4899 6.7282 57.4941H61.4874C61.6437 57.4899 61.7994 57.5116 61.9453 57.5579C62.0912 57.6042 62.2244 57.6743 62.3367 57.7639C62.4491 57.8534 62.5385 57.9607 62.5995 58.0793C62.6606 58.1979 62.692 58.3255 62.692 58.4543C62.692 58.5831 62.6606 58.7107 62.5995 58.8293C62.5385 58.9479 62.4491 59.0552 62.3367 59.1447C62.2244 59.2343 62.0912 59.3044 61.9453 59.3507C61.7994 59.397 61.6437 59.4187 61.4874 59.4144H6.7282ZM6.7282 65.3395C6.5719 65.3437 6.41617 65.3221 6.27025 65.2757C6.12434 65.2294 5.99122 65.1594 5.87883 65.0698C5.76644 64.9802 5.67707 64.8729 5.61603 64.7543C5.555 64.6357 5.52354 64.5082 5.52354 64.3793C5.52354 64.2505 5.555 64.123 5.61603 64.0044C5.67707 63.8857 5.76644 63.7785 5.87883 63.6889C5.99122 63.5993 6.12434 63.5293 6.27025 63.4829C6.41617 63.4366 6.5719 63.4149 6.7282 63.4192H61.4874C61.6437 63.4149 61.7994 63.4366 61.9453 63.4829C62.0912 63.5293 62.2244 63.5993 62.3367 63.6889C62.4491 63.7785 62.5385 63.8857 62.5995 64.0044C62.6606 64.123 62.692 64.2505 62.692 64.3793C62.692 64.5082 62.6606 64.6357 62.5995 64.7543C62.5385 64.8729 62.4491 64.9802 62.3367 65.0698C62.2244 65.1594 62.0912 65.2294 61.9453 65.2757C61.7994 65.3221 61.6437 65.3437 61.4874 65.3395H6.7282Z" fill="url(#paint0_linear_1041_1030)"/>
<defs>
<linearGradient id="paint0_linear_1041_1030" x1="38" y1="0" x2="38" y2="80" gradientUnits="userSpaceOnUse">
<stop stop-color="#36B2F1"/>
<stop offset="1" stop-color="#1F678B"/>
</linearGradient>
</defs>
</svg>
