<svg width="86" height="80" viewBox="0 0 86 80" fill="none" xmlns="http://www.w3.org/2000/svg">
<path fill-rule="evenodd" clip-rule="evenodd" d="M85.9993 14.9094C85.9993 23.1419 78.55 29.8194 69.3572 29.8194C66.8491 29.8194 64.4722 29.3223 62.3427 28.4322L61.9228 26.4203L64.5172 24.096C65.9867 24.7174 67.6251 25.0667 69.3572 25.0667C75.618 25.0667 80.6938 20.5188 80.6938 14.91C80.6938 9.30077 75.6176 4.75331 69.3572 4.75331C63.0963 4.75331 58.0206 9.3012 58.0206 14.91C58.0206 16.4618 58.4105 17.9329 59.104 19.2463L56.5097 21.5706L54.2641 21.1944C53.2706 19.2832 52.7157 17.1537 52.7157 14.91C52.7157 6.67751 60.1651 0 69.3579 0C78.5467 0 85.9993 6.67338 85.9993 14.9094ZM7.87728 80H79.7168V77.3029H7.87728V80ZM40.5089 41.2357L43.0883 43.6608C43.2457 43.8086 43.4669 43.8624 43.6843 43.8052C43.9018 43.7481 44.0592 43.6004 44.1042 43.3988L46.6049 32.5199C46.6461 32.3418 46.5899 32.1739 46.4512 32.0429C46.3087 31.9119 46.1212 31.8582 45.9225 31.8884L33.7865 33.7122C33.5653 33.7458 33.3928 33.8768 33.3216 34.0683C33.2503 34.2597 33.2991 34.4579 33.4565 34.6057L35.8746 36.8762C31.7095 40.5844 17.0654 52.34 0 58.954C18.2315 56.5424 30.6449 48.9444 40.5122 41.2332L40.5089 41.2357ZM23.338 75.0188V60.1862H13.1329V75.0188H23.338ZM57.4169 46.5462H47.2118V75.0188H57.4169V46.5462ZM40.3774 75.0188V53.3675H30.1724V75.0188H40.3774ZM64.2551 39.7276V75.0188H74.4602V39.7276H64.2551ZM67.6068 21.3308C68.1692 21.4551 68.754 21.5189 69.3576 21.5189C73.429 21.5189 76.7319 18.5632 76.7319 14.9121C76.7319 11.2644 73.4328 8.30527 69.3576 8.30527C65.2861 8.30527 61.9832 11.261 61.9832 14.9121C61.9832 15.4529 62.0544 15.9769 62.1932 16.4807L66.6507 12.487C68.1429 11.1502 70.5685 11.1502 72.0643 12.487C73.5565 13.8239 73.5565 15.997 72.0643 17.3372L67.6068 21.3308ZM53.7911 23.4469L47.4028 29.1703L52.4978 30.02L53.4463 34.5847L59.8346 28.8613L59.1673 25.6569L70.2572 15.7213C70.7558 15.2745 70.7558 14.5524 70.2572 14.1057C69.7586 13.6589 68.9525 13.6589 68.4539 14.1057L57.364 24.0414L53.7874 23.4435L53.7911 23.4469Z" fill="url(#paint0_linear_1041_720)"/>
<defs>
<linearGradient id="paint0_linear_1041_720" x1="43" y1="0" x2="43" y2="80" gradientUnits="userSpaceOnUse">
<stop stop-color="#36B2F1"/>
<stop offset="1" stop-color="#1F678B"/>
</linearGradient>
</defs>
</svg>
