<svg width="64" height="64" viewBox="0 0 64 64" fill="none" xmlns="http://www.w3.org/2000/svg">
<g opacity="0.5">
<path d="M42.6668 8C41.2523 8 39.8958 8.5619 38.8956 9.5621C37.8954 10.5623 37.3335 11.9188 37.3335 13.3333V29.3333C37.3335 30.7478 37.8954 32.1044 38.8956 33.1046C39.8958 34.1048 41.2523 34.6667 42.6668 34.6667C43.3741 34.6667 44.0524 34.9476 44.5524 35.4477C45.0525 35.9478 45.3335 36.6261 45.3335 37.3333V40C45.3335 41.4145 44.7716 42.771 43.7714 43.7712C42.7712 44.7714 41.4147 45.3333 40.0002 45.3333C39.2929 45.3333 38.6146 45.6143 38.1145 46.1144C37.6144 46.6145 37.3335 47.2928 37.3335 48V53.3333C37.3335 54.0406 37.6144 54.7189 38.1145 55.219C38.6146 55.7191 39.2929 56 40.0002 56C44.2436 56 48.3133 54.3143 51.3139 51.3137C54.3145 48.3131 56.0002 44.2435 56.0002 40V13.3333C56.0002 11.9188 55.4383 10.5623 54.4381 9.5621C53.4379 8.5619 52.0813 8 50.6668 8H42.6668Z" stroke="#6A7282" stroke-opacity="0.8" stroke-width="4" stroke-linecap="round" stroke-linejoin="round"/>
<path d="M13.3333 8C11.9188 8 10.5623 8.5619 9.5621 9.5621C8.5619 10.5623 8 11.9188 8 13.3333V29.3333C8 30.7478 8.5619 32.1044 9.5621 33.1046C10.5623 34.1048 11.9188 34.6667 13.3333 34.6667C14.0406 34.6667 14.7189 34.9476 15.219 35.4477C15.719 35.9478 16 36.6261 16 37.3333V40C16 41.4145 15.4381 42.771 14.4379 43.7712C13.4377 44.7714 12.0812 45.3333 10.6667 45.3333C9.95942 45.3333 9.28115 45.6143 8.78105 46.1144C8.28095 46.6145 8 47.2928 8 48V53.3333C8 54.0406 8.28095 54.7189 8.78105 55.219C9.28115 55.7191 9.95942 56 10.6667 56C14.9101 56 18.9798 54.3143 21.9804 51.3137C24.981 48.3131 26.6667 44.2435 26.6667 40V13.3333C26.6667 11.9188 26.1048 10.5623 25.1046 9.5621C24.1044 8.5619 22.7478 8 21.3333 8H13.3333Z" stroke="#6A7282" stroke-opacity="0.8" stroke-width="4" stroke-linecap="round" stroke-linejoin="round"/>
</g>
</svg>
