<svg width="36" height="32" viewBox="0 0 36 32" fill="none" xmlns="http://www.w3.org/2000/svg">
<path d="M16.1431 22.4083C15.8014 22.069 15.3567 21.9043 14.9119 21.9043C14.4671 21.9043 14.0223 22.073 13.6847 22.4083L10.5592 25.5127C9.88195 26.1854 9.88195 27.2818 10.5592 27.9545L10.7048 28.099C11.382 28.7717 12.4859 28.7717 13.1571 28.099L16.2826 24.9946C16.9598 24.3219 16.9598 23.2256 16.2826 22.5529L16.1431 22.4083Z" fill="url(#paint0_linear_547_3344)"/>
<path d="M12.7123 18.9982C12.3767 18.6648 11.9299 18.4941 11.4851 18.4941C11.0403 18.4941 10.5956 18.6628 10.258 18.9982L7.13246 22.1026C6.4552 22.7752 6.4552 23.8716 7.13246 24.5443L7.27802 24.6828C7.95528 25.3555 9.0591 25.3555 9.73636 24.6828L12.8619 21.5784C13.5391 20.9058 13.5391 19.8094 12.8619 19.1367L12.7123 18.9982Z" fill="url(#paint1_linear_547_3344)"/>
<path d="M9.28558 15.5959C8.96009 15.2666 8.51935 15.0879 8.05842 15.0879C7.59344 15.0879 7.15877 15.2686 6.83127 15.5919L4.40931 17.9975V18.0035H4.40324L3.70373 18.6983C3.37824 19.0216 3.19629 19.4594 3.19629 19.9172C3.19629 20.379 3.37824 20.8108 3.70373 21.1361L3.84929 21.2806C4.52655 21.9533 5.63037 21.9533 6.30158 21.2806L9.42709 18.1762C10.1043 17.5035 10.1043 16.4072 9.42709 15.7345L9.28558 15.5959Z" fill="url(#paint2_linear_547_3344)"/>
<path d="M13.4722 30.132C13.4722 30.5939 13.6541 31.0256 13.9796 31.3509L14.1252 31.4955C14.8024 32.1681 15.9062 32.1681 16.5775 31.4955L19.703 28.3911C20.3802 27.7184 20.3802 26.622 19.703 25.9493L19.5574 25.8108C19.2319 25.4814 18.7912 25.3027 18.3303 25.3027C17.8653 25.3027 17.4306 25.4835 17.1031 25.8067L13.9776 28.9111C13.6541 29.2385 13.4722 29.6762 13.4722 30.132Z" fill="url(#paint3_linear_547_3344)"/>
<path d="M33.335 3.32448C31.6125 1.61367 29.324 0.671875 26.892 0.671875C24.464 0.671875 22.1714 1.61161 20.4429 3.32448L18.7669 4.98913C18.7608 4.99516 18.7608 4.99917 18.7568 5.0052C18.7507 5.01122 18.7467 5.01122 18.7406 5.01524L13.834 9.8927C12.8151 10.9048 12.8151 12.5513 13.834 13.5573C14.3253 14.0453 14.9783 14.3124 15.6758 14.3124C16.3793 14.3124 17.0323 14.0453 17.5175 13.5573L22.4403 8.6578C22.507 8.59153 22.5899 8.54937 22.6727 8.52326C22.8082 8.47708 22.9578 8.4831 23.0872 8.53933C23.1499 8.56543 23.2105 8.60559 23.2691 8.6578L32.0514 17.3864L33.3291 16.1173C35.0515 14.4105 35.9997 12.1394 35.9997 9.71788C36.0058 7.30826 35.0534 5.03154 33.335 3.32448Z" fill="url(#paint4_linear_547_3344)"/>
<path d="M3.9908 16.7729L6.00437 14.7729C6.55224 14.2288 7.28209 13.9256 8.05841 13.9256C8.83472 13.9256 9.56457 14.2228 10.1124 14.7729L10.258 14.9115C10.9312 15.5802 11.194 16.4998 11.0707 17.3693C11.9461 17.2468 12.872 17.5038 13.5452 18.1705L13.6908 18.315C14.364 18.9837 14.6268 19.8973 14.4974 20.7728C15.3728 20.6503 16.2987 20.9074 16.9719 21.574L17.1175 21.7126C17.7907 22.3813 18.0535 23.3009 17.9241 24.1704C18.0636 24.1503 18.199 24.1302 18.3426 24.1302C19.1189 24.1302 19.8487 24.4274 20.3966 24.9776L20.5422 25.1161C21.1163 25.6864 21.3953 26.4314 21.3913 27.1783L22.2909 28.0719C23.0106 28.7867 24.1751 28.7867 24.8948 28.0719C25.2425 27.7265 25.4285 27.2747 25.4285 26.7868C25.4285 26.3028 25.2364 25.847 24.8948 25.5016L17.9079 18.582C17.7947 18.4696 17.7381 18.319 17.7381 18.1704C17.7381 18.0218 17.7947 17.8732 17.9079 17.7587C18.1364 17.5318 18.5084 17.5318 18.7368 17.7587L25.7175 24.6922C26.4311 25.4011 27.5916 25.4011 28.3052 24.6922C29.0148 23.9874 29.0189 22.8469 28.3214 22.138L28.2911 22.1079L21.8926 15.7604C21.6642 15.5335 21.6642 15.164 21.8926 14.9371C22.1211 14.7102 22.4931 14.7102 22.7215 14.9371L29.1282 21.3067C29.1343 21.3127 29.1343 21.3127 29.1384 21.3167C29.8419 21.9894 31.0428 21.9753 31.7321 21.2906C32.4458 20.5818 32.4458 19.4292 31.7321 18.7204L31.6391 18.628L22.8548 9.89944L18.3465 14.3813C17.643 15.0902 16.6908 15.4817 15.6698 15.4817C14.661 15.4817 13.7129 15.0902 13.0053 14.3813C11.5295 12.9155 11.5295 10.536 13.0053 9.07223L17.5136 4.59032L15.5627 2.65261C13.8403 0.941793 11.5517 0 9.11978 0C6.68773 0 4.39919 0.939736 2.67064 2.65862C0.948196 4.36943 0 6.64251 0 9.05804C0 11.4737 0.946126 13.7508 2.67064 15.4575L3.9908 16.7729Z" fill="url(#paint5_linear_547_3344)"/>
<defs>
<linearGradient id="paint0_linear_547_3344" x1="13.4209" y1="21.9043" x2="13.4209" y2="28.6035" gradientUnits="userSpaceOnUse">
<stop stop-color="#36B2F1"/>
<stop offset="1" stop-color="#1F678B"/>
</linearGradient>
<linearGradient id="paint1_linear_547_3344" x1="9.99717" y1="18.4941" x2="9.99717" y2="25.1874" gradientUnits="userSpaceOnUse">
<stop stop-color="#36B2F1"/>
<stop offset="1" stop-color="#1F678B"/>
</linearGradient>
<linearGradient id="paint2_linear_547_3344" x1="6.56566" y1="15.0879" x2="6.56566" y2="21.7851" gradientUnits="userSpaceOnUse">
<stop stop-color="#36B2F1"/>
<stop offset="1" stop-color="#1F678B"/>
</linearGradient>
<linearGradient id="paint3_linear_547_3344" x1="16.8415" y1="25.3027" x2="16.8415" y2="32" gradientUnits="userSpaceOnUse">
<stop stop-color="#36B2F1"/>
<stop offset="1" stop-color="#1F678B"/>
</linearGradient>
<linearGradient id="paint4_linear_547_3344" x1="24.5348" y1="0.671875" x2="24.5348" y2="17.3864" gradientUnits="userSpaceOnUse">
<stop stop-color="#36B2F1"/>
<stop offset="1" stop-color="#1F678B"/>
</linearGradient>
<linearGradient id="paint5_linear_547_3344" x1="16.1337" y1="0" x2="16.1337" y2="28.608" gradientUnits="userSpaceOnUse">
<stop stop-color="#36B2F1"/>
<stop offset="1" stop-color="#1F678B"/>
</linearGradient>
</defs>
</svg>
