<svg width="26" height="32" viewBox="0 0 26 32" fill="none" xmlns="http://www.w3.org/2000/svg">
<path d="M7.52918 12.8295H10.0784V10.5171C10.0784 9.82965 9.50386 9.27344 8.80143 9.27344C8.09899 9.27344 7.52441 9.83277 7.52441 10.5171V12.8295H7.52918Z" fill="url(#paint0_linear_526_1678)"/>
<path d="M11.0522 10.6843V12.8842C11.0759 12.8639 11.1012 12.8483 11.1249 12.8326H12.6686C13.1422 12.8326 13.5904 13.0014 13.9409 13.3092V10.6812C13.9409 9.90465 13.2937 9.27344 12.4981 9.27344C11.7026 9.27344 11.0554 9.90465 11.0554 10.6812L11.0522 10.6843Z" fill="url(#paint1_linear_526_1678)"/>
<path d="M14.2534 15.8582C14.075 16.1503 13.8288 16.4019 13.5304 16.5894C12.929 16.9659 11.9141 17.4456 10.4871 17.5971C10.4714 17.5971 10.4666 17.6018 10.4666 17.6096C10.4587 17.6174 10.4587 17.6253 10.4587 17.6299H10.4635C10.5519 17.7174 10.9449 17.8784 11.2558 18.0018C12.3229 18.433 13.9314 19.0814 14.4475 20.5329C14.6417 21.0767 14.6575 21.6766 14.5044 22.3328C14.4759 22.4563 14.4396 22.5844 14.3954 22.7125C14.2786 23.0765 14.105 23.4609 13.8856 23.8531C13.7562 24.0843 13.461 24.1687 13.2274 24.0406C12.9938 23.9125 12.9085 23.6203 13.038 23.389C13.1832 23.1297 13.3 22.8813 13.3931 22.6406C13.6646 21.9485 13.7088 21.3485 13.5304 20.8485C13.1579 19.8048 11.8446 19.272 10.888 18.8893C10.3782 18.6815 10.0104 18.533 9.78939 18.3205C9.50999 18.0518 9.41371 17.6643 9.53841 17.3003C9.66785 16.9315 9.99144 16.6769 10.3829 16.6362C11.6236 16.505 12.4965 16.0956 13.0095 15.7722C13.382 15.5363 13.603 15.1363 13.603 14.6957C13.603 14.4519 13.5067 14.2238 13.3315 14.0519C13.1531 13.8801 12.9195 13.7832 12.6686 13.7832H6.66414C6.0296 13.7832 5.5166 14.2879 5.5166 14.9035V18.6876C5.5166 19.3517 5.74232 20.0079 6.15115 20.5391L8.50624 23.5952C8.76827 23.9358 8.9703 24.303 9.11711 24.6998H18.7062C18.7425 24.5561 18.7867 24.4123 18.8357 24.2717L20.2626 20.2595C20.4126 19.8439 20.4852 19.408 20.4852 18.9643V16.0332C20.2516 16.1769 19.9801 16.2738 19.6928 16.3128C19.6044 16.3253 19.5113 16.3332 19.4181 16.3332H19.3534C18.8562 16.3175 18.4031 16.1285 18.0559 15.8207C17.6755 16.4691 16.9605 16.9082 16.1443 16.9082C15.3282 16.9082 14.6369 16.4848 14.2486 15.852L14.2534 15.8582Z" fill="url(#paint2_linear_526_1678)"/>
<path d="M16.1474 9.27148C15.4686 9.27148 14.9146 9.8121 14.9146 10.4761V14.7479C14.9146 15.4119 15.4686 15.9525 16.1474 15.9525C16.8261 15.9525 17.3802 15.4119 17.3802 14.7479V10.4761C17.3802 9.81206 16.8261 9.27148 16.1474 9.27148Z" fill="url(#paint3_linear_526_1678)"/>
<path d="M19.4164 15.3783H19.429C20.0115 15.3705 20.4803 14.9064 20.4803 14.3377V10.7222C20.4803 10.1504 20.0036 9.68164 19.4132 9.68164C18.8229 9.68164 18.3462 10.1504 18.3462 10.7222V14.3377C18.3462 14.9095 18.8229 15.3783 19.4132 15.3783H19.4164Z" fill="url(#paint4_linear_526_1678)"/>
<path d="M8.36081 25.668H19.4322C19.5095 25.668 19.5742 25.7445 19.5742 25.8086V31.8599C19.5742 31.9365 19.5111 32.0005 19.4322 32.0005H8.36081C8.28346 32.0005 8.21875 31.924 8.21875 31.8599V25.8086C8.21875 25.732 8.28189 25.668 8.36081 25.668Z" fill="url(#paint5_linear_526_1678)"/>
<path d="M13.4848 4.23571V0.479657C13.4848 0.215605 13.267 0 13.0002 0C12.7335 0 12.5156 0.215613 12.5156 0.479657V4.23571C12.5156 4.49977 12.7335 4.71537 13.0002 4.71537C13.267 4.71537 13.4848 4.49976 13.4848 4.23571Z" fill="url(#paint6_linear_526_1678)"/>
<path d="M5.0431 1.94911C4.81738 2.08973 4.74477 2.38501 4.88525 2.60844L6.87731 5.80361C6.97044 5.95203 7.12829 6.03172 7.28928 6.03172C7.37768 6.03172 7.46292 6.00828 7.54342 5.95985C7.76914 5.81923 7.84176 5.52395 7.70127 5.30052L5.70921 2.10535C5.56715 1.87724 5.26883 1.81006 5.0431 1.94911Z" fill="url(#paint7_linear_526_1678)"/>
<path d="M0.392825 8.58763L4.11489 9.30792C4.14645 9.31573 4.17961 9.31573 4.20802 9.31573C4.43374 9.31573 4.64052 9.15636 4.68472 8.92825C4.73682 8.66888 4.56318 8.41579 4.30115 8.3642L0.579091 7.64391C0.317061 7.59235 0.0613669 7.76422 0.00923895 8.02358C-0.0428527 8.28294 0.130795 8.53603 0.392825 8.58763Z" fill="url(#paint8_linear_526_1678)"/>
<path d="M18.7094 6.03557C18.8704 6.03557 19.033 5.95589 19.1214 5.80746L21.1135 2.61229C21.2555 2.38418 21.1829 2.08888 20.9556 1.95297C20.7299 1.81235 20.4268 1.88422 20.2895 2.10921L18.2975 5.30438C18.1554 5.53249 18.228 5.82779 18.4553 5.9637C18.5358 6.01214 18.621 6.03557 18.7094 6.03557Z" fill="url(#paint9_linear_526_1678)"/>
<path d="M21.8852 9.31182L25.6073 8.59154C25.8693 8.53997 26.043 8.28686 25.9909 8.02748C25.9388 7.76812 25.6831 7.59626 25.421 7.64781L21.699 8.3681C21.4369 8.41966 21.2633 8.67277 21.3154 8.93215C21.3596 9.16026 21.5664 9.31963 21.7921 9.31963C21.8237 9.31963 21.8521 9.31963 21.8852 9.31182Z" fill="url(#paint10_linear_526_1678)"/>
<defs>
<linearGradient id="paint0_linear_526_1678" x1="8.80143" y1="9.27344" x2="8.80143" y2="12.8295" gradientUnits="userSpaceOnUse">
<stop stop-color="#36B2F1"/>
<stop offset="1" stop-color="#1F678B"/>
</linearGradient>
<linearGradient id="paint1_linear_526_1678" x1="12.4966" y1="9.27344" x2="12.4966" y2="13.3092" gradientUnits="userSpaceOnUse">
<stop stop-color="#36B2F1"/>
<stop offset="1" stop-color="#1F678B"/>
</linearGradient>
<linearGradient id="paint2_linear_526_1678" x1="13.0009" y1="13.7832" x2="13.0009" y2="24.6998" gradientUnits="userSpaceOnUse">
<stop stop-color="#36B2F1"/>
<stop offset="1" stop-color="#1F678B"/>
</linearGradient>
<linearGradient id="paint3_linear_526_1678" x1="16.1474" y1="9.27148" x2="16.1474" y2="15.9525" gradientUnits="userSpaceOnUse">
<stop stop-color="#36B2F1"/>
<stop offset="1" stop-color="#1F678B"/>
</linearGradient>
<linearGradient id="paint4_linear_526_1678" x1="19.4132" y1="9.68164" x2="19.4132" y2="15.3783" gradientUnits="userSpaceOnUse">
<stop stop-color="#36B2F1"/>
<stop offset="1" stop-color="#1F678B"/>
</linearGradient>
<linearGradient id="paint5_linear_526_1678" x1="13.8965" y1="25.668" x2="13.8965" y2="32.0005" gradientUnits="userSpaceOnUse">
<stop stop-color="#36B2F1"/>
<stop offset="1" stop-color="#1F678B"/>
</linearGradient>
<linearGradient id="paint6_linear_526_1678" x1="13.0002" y1="0" x2="13.0002" y2="4.71537" gradientUnits="userSpaceOnUse">
<stop stop-color="#36B2F1"/>
<stop offset="1" stop-color="#1F678B"/>
</linearGradient>
<linearGradient id="paint7_linear_526_1678" x1="6.29326" y1="1.87695" x2="6.29326" y2="6.03172" gradientUnits="userSpaceOnUse">
<stop stop-color="#36B2F1"/>
<stop offset="1" stop-color="#1F678B"/>
</linearGradient>
<linearGradient id="paint8_linear_526_1678" x1="2.34698" y1="7.63477" x2="2.34698" y2="9.31573" gradientUnits="userSpaceOnUse">
<stop stop-color="#36B2F1"/>
<stop offset="1" stop-color="#1F678B"/>
</linearGradient>
<linearGradient id="paint9_linear_526_1678" x1="19.7055" y1="1.88086" x2="19.7055" y2="6.03558" gradientUnits="userSpaceOnUse">
<stop stop-color="#36B2F1"/>
<stop offset="1" stop-color="#1F678B"/>
</linearGradient>
<linearGradient id="paint10_linear_526_1678" x1="23.6531" y1="7.63867" x2="23.6531" y2="9.31963" gradientUnits="userSpaceOnUse">
<stop stop-color="#36B2F1"/>
<stop offset="1" stop-color="#1F678B"/>
</linearGradient>
</defs>
</svg>
