<svg width="37" height="32" viewBox="0 0 37 32" fill="none" xmlns="http://www.w3.org/2000/svg">
<path d="M5.44756 16.5527H1.81321C0.813148 16.5527 0 17.3659 0 18.3659V30.1867C0 31.1868 0.813148 31.9999 1.81321 31.9999H5.44756C6.44763 31.9999 7.26078 31.1868 7.26078 30.1867V18.3659C7.26078 17.3659 6.44763 16.5527 5.44756 16.5527Z" fill="url(#paint0_linear_547_3355)"/>
<path d="M15.1023 12.6328H11.468C10.4679 12.6328 9.65479 13.4462 9.65479 14.4458V30.187C9.65479 31.1871 10.4679 32.0002 11.468 32.0002H15.1023C16.1024 32.0002 16.9156 31.1871 16.9156 30.187V14.4458C16.9156 13.4462 16.1024 12.6328 15.1023 12.6328Z" fill="url(#paint1_linear_547_3355)"/>
<path d="M24.7576 14.2598H21.1233C20.1232 14.2598 19.3101 15.0732 19.3101 16.073V30.1874C19.3101 31.1875 20.1232 32.0006 21.1233 32.0006H24.7576C25.7577 32.0006 26.5708 31.1875 26.5708 30.1874V16.073C26.5708 15.0732 25.7577 14.2598 24.7576 14.2598Z" fill="url(#paint2_linear_547_3355)"/>
<path d="M34.4129 9.35156H30.7785C29.7785 9.35156 28.9653 10.165 28.9653 11.1648V30.1872C28.9653 31.1872 29.7785 32.0004 30.7785 32.0004H34.4129C35.413 32.0004 36.2261 31.1872 36.2261 30.1872V11.1648C36.2261 10.165 35.413 9.35156 34.4129 9.35156Z" fill="url(#paint3_linear_547_3355)"/>
<path d="M3.63001 12.4707C5.2806 12.4707 6.62335 11.128 6.62335 9.47766C6.62335 9.05412 6.53372 8.65151 6.37432 8.28595L11.1454 5.08148C11.6893 5.63854 12.4471 5.98588 13.2853 5.98588C14.1234 5.98588 14.8812 5.63844 15.425 5.08128L20.1964 8.28595C20.037 8.65151 19.9474 9.05412 19.9474 9.47766C19.9474 11.128 21.2901 12.4707 22.9407 12.4707C24.5907 12.4707 25.9335 11.128 25.9335 9.47766C25.9335 9.05412 25.8439 8.65151 25.6845 8.28595L30.4558 5.08128C30.9997 5.63844 31.7574 5.98588 32.5955 5.98588C34.2461 5.98588 35.5888 4.64313 35.5888 2.99281C35.5888 1.34249 34.2461 0 32.5955 0C30.9454 0 29.6027 1.34249 29.6027 2.99281C29.6027 3.41634 29.6923 3.81892 29.8517 4.18444L25.0803 7.38912C24.5364 6.83199 23.7788 6.48459 22.9407 6.48459C22.1023 6.48459 21.3445 6.83199 20.8006 7.38915L16.0292 4.18444C16.1885 3.81892 16.2782 3.41634 16.2782 2.99281C16.2782 1.34249 14.9354 0 13.2853 0C11.6348 0 10.292 1.34249 10.292 2.99281C10.292 3.41644 10.3817 3.81912 10.5411 4.18471L5.77007 7.38915C5.22621 6.83199 4.46837 6.48459 3.63001 6.48459C1.97996 6.48459 0.637207 7.82734 0.637207 9.47766C0.637207 11.128 1.97996 12.4707 3.63001 12.4707Z" fill="url(#paint4_linear_547_3355)"/>
<defs>
<linearGradient id="paint0_linear_547_3355" x1="3.63039" y1="16.5527" x2="3.63039" y2="31.9999" gradientUnits="userSpaceOnUse">
<stop stop-color="#36B2F1"/>
<stop offset="1" stop-color="#1F678B"/>
</linearGradient>
<linearGradient id="paint1_linear_547_3355" x1="13.2852" y1="12.6328" x2="13.2852" y2="32.0002" gradientUnits="userSpaceOnUse">
<stop stop-color="#36B2F1"/>
<stop offset="1" stop-color="#1F678B"/>
</linearGradient>
<linearGradient id="paint2_linear_547_3355" x1="22.9404" y1="14.2598" x2="22.9404" y2="32.0006" gradientUnits="userSpaceOnUse">
<stop stop-color="#36B2F1"/>
<stop offset="1" stop-color="#1F678B"/>
</linearGradient>
<linearGradient id="paint3_linear_547_3355" x1="32.5957" y1="9.35156" x2="32.5957" y2="32.0004" gradientUnits="userSpaceOnUse">
<stop stop-color="#36B2F1"/>
<stop offset="1" stop-color="#1F678B"/>
</linearGradient>
<linearGradient id="paint4_linear_547_3355" x1="18.113" y1="0" x2="18.113" y2="12.4707" gradientUnits="userSpaceOnUse">
<stop stop-color="#36B2F1"/>
<stop offset="1" stop-color="#1F678B"/>
</linearGradient>
</defs>
</svg>
