<svg width="32" height="32" viewBox="0 0 32 32" fill="none" xmlns="http://www.w3.org/2000/svg">
<path fill-rule="evenodd" clip-rule="evenodd" d="M14.5997 2.81453C17.4988 2.81453 20.3315 3.67999 22.7352 5.29996L22.8378 7.16404L19.9651 10.0323C17.4641 8.21535 14.2142 7.78817 11.3275 8.89636C8.44094 10.0032 6.31169 12.497 5.66931 15.5204C5.02707 18.544 5.95783 21.6868 8.14396 23.8725C10.3301 26.0583 13.4734 26.989 16.4971 26.3469C19.521 25.7047 22.015 23.5757 23.1219 20.6893C24.2302 17.8031 23.803 14.5535 21.9859 12.0528L24.8544 9.18041L26.7187 9.28304C29.1531 12.9143 29.83 17.4438 28.5664 21.6286C27.3013 25.8116 24.2273 29.2099 20.1909 30.8851C16.1544 32.5605 11.5782 32.3386 7.7221 30.2803C3.86602 28.2221 1.13456 24.544 0.281597 20.258C-0.572854 15.971 0.539602 11.527 3.31387 8.14858C6.08674 4.76995 10.2291 2.81311 14.5997 2.81453ZM15.665 17.4083L28.6374 4.45421C28.8108 4.32106 28.9189 4.11995 28.9328 3.90219C28.9481 3.68305 28.8676 3.46944 28.7123 3.31413C28.5569 3.15883 28.3433 3.07835 28.1255 3.09361C27.9064 3.10748 27.7052 3.21566 27.5721 3.38903L14.5998 16.3321C14.4264 16.4653 14.3182 16.6664 14.3029 16.8855C14.289 17.1033 14.3695 17.3169 14.5248 17.4722C14.6788 17.6275 14.8938 17.708 15.1116 17.6927C15.3308 17.6789 15.5319 17.5707 15.665 17.3973V17.4083ZM25.4982 8.54133L28.0936 8.6828C28.2669 8.69251 28.4362 8.62871 28.5582 8.50527L31.9179 5.14606V5.14745C31.9969 5.06284 32.0205 4.94218 31.9817 4.83538C31.9428 4.72719 31.8471 4.64952 31.7334 4.63565L29.4044 4.50389C29.3336 4.66478 29.2338 4.81041 29.1089 4.93384L25.4982 8.54133ZM27.5221 2.61889L27.3833 0.286018C27.3764 0.166739 27.3001 0.062716 27.1878 0.0197215C27.0768 -0.0218883 26.9506 0.00307796 26.8646 0.0876841L23.5133 3.44551C23.3856 3.57173 23.3218 3.74787 23.3357 3.92541L23.4772 6.52042L27.0922 2.91015C27.2156 2.78532 27.3613 2.68546 27.5222 2.61473L27.5221 2.61889ZM14.5995 13.7465C12.9918 13.7479 11.5728 14.7992 11.1053 16.3374C10.6365 17.8755 11.226 19.5385 12.5604 20.4373C13.8934 21.3347 15.6565 21.257 16.9062 20.2445C18.1546 19.2334 18.5971 17.5233 17.9937 16.0338L16.1474 17.8771V17.8757C15.5912 18.4333 14.6882 18.4333 14.1305 17.8757C13.5743 17.3196 13.5743 16.4166 14.1305 15.8591L15.974 14.013C15.5371 13.8369 15.0697 13.7465 14.5995 13.7465Z" fill="url(#paint0_linear_526_1639)"/>
<defs>
<linearGradient id="paint0_linear_526_1639" x1="16" y1="0" x2="16" y2="32" gradientUnits="userSpaceOnUse">
<stop stop-color="#36B2F1"/>
<stop offset="1" stop-color="#1F678B"/>
</linearGradient>
</defs>
</svg>
