<svg width="26" height="32" viewBox="0 0 26 32" fill="none" xmlns="http://www.w3.org/2000/svg">
<path fill-rule="evenodd" clip-rule="evenodd" d="M12.9417 0.00091334C12.914 0.00354384 12.8865 0.00756764 12.8591 0.012982C12.7027 0.036333 12.5565 0.104131 12.4386 0.208016C12.4345 0.211998 12.4304 0.216017 12.4264 0.220085C12.3493 0.274424 10.8911 1.30148 8.67195 2.39632C6.39523 3.51869 3.43117 4.61843 0.810873 4.61843H0V16.0565C0 21.8974 3.23284 25.917 6.39962 28.3979C9.5664 30.8788 12.7453 31.9173 12.7453 31.9173L12.9977 32L13.2547 31.9173C13.2547 31.9173 16.4336 30.8788 19.6004 28.3979C22.7672 25.917 26 21.8974 26 16.0565V4.61843H25.1828C22.5625 4.61843 19.6032 3.51868 17.3265 2.3954C15.0922 1.29307 13.6055 0.24245 13.5483 0.202028C13.4274 0.0962059 13.2771 0.0282806 13.1167 0.00699375C13.1126 0.00696333 13.1085 0.00696333 13.1044 0.00699375C13.0801 0.00390092 13.0557 0.00184356 13.0313 0.00091334C13.0272 0.000882916 13.0231 0.000882916 13.019 0.00091334C12.9931 -0.000304447 12.9676 -0.000304447 12.9417 0.00091334ZM12.9989 7.99444C14.0658 7.99444 15.1223 8.20108 16.108 8.60248C17.0937 9.00389 17.9893 9.59223 18.7437 10.3339C19.4982 11.0756 20.0966 11.9561 20.5049 12.9252C20.9132 13.8943 21.1233 14.9329 21.1233 15.9818C21.1233 18.1002 20.2674 20.1318 18.7437 21.6297C17.2201 23.1276 15.1536 23.9692 12.9989 23.9692C11.9319 23.9692 10.8755 23.7625 9.88975 23.3611C8.90404 22.9597 8.0084 22.3714 7.25397 21.6297C6.49954 20.888 5.90109 20.0075 5.49279 19.0384C5.0845 18.0693 4.87435 17.0307 4.87435 15.9818C4.87435 14.9329 5.08449 13.8943 5.49279 12.9252C5.90108 11.9561 6.49953 11.0756 7.25396 10.3339C8.00839 9.59223 8.90403 9.00389 9.88974 8.60248C10.8755 8.20108 11.9319 7.99444 12.9989 7.99444ZM17.4467 11.9819C17.1299 11.9902 16.8288 12.1195 16.6073 12.3423L11.7849 17.0894L9.39202 14.7369C9.27926 14.6231 9.14461 14.5325 8.99591 14.4703C8.84721 14.4081 8.68741 14.3756 8.52582 14.3746C8.36422 14.3737 8.20405 14.4044 8.05462 14.4648C7.90518 14.5253 7.76946 14.6144 7.65536 14.7269C7.54125 14.8394 7.45102 14.9731 7.38993 15.1201C7.32884 15.2672 7.29809 15.4248 7.29949 15.5836C7.30088 15.7425 7.33438 15.8995 7.39804 16.0456C7.46171 16.1916 7.55426 16.3237 7.67033 16.4342L10.9217 19.6307C11.1501 19.8543 11.4594 19.9799 11.7818 19.9799C12.1042 19.9799 12.4134 19.8543 12.6418 19.6307L18.3274 14.0349C18.5017 13.8666 18.6206 13.6507 18.6686 13.4152C18.7166 13.1797 18.6915 12.9355 18.5966 12.7142C18.5016 12.4929 18.3412 12.3048 18.1362 12.1742C17.9312 12.0436 17.6909 11.9766 17.4467 11.9819Z" fill="url(#paint0_linear_526_1668)"/>
<defs>
<linearGradient id="paint0_linear_526_1668" x1="13" y1="0" x2="13" y2="32" gradientUnits="userSpaceOnUse">
<stop stop-color="#36B2F1"/>
<stop offset="1" stop-color="#1F678B"/>
</linearGradient>
</defs>
</svg>
