<svg width="32" height="32" viewBox="0 0 32 32" fill="none" xmlns="http://www.w3.org/2000/svg">
<path fill-rule="evenodd" clip-rule="evenodd" d="M24.1599 5.46997C25.0559 5.03785 25.8863 4.53592 26.6365 3.97497C25.0826 2.59004 23.2587 1.50301 21.254 0.805149C22.4749 2.09883 23.4378 3.74018 24.1599 5.46997ZM16.8211 7.24277V0C19.4447 0.497876 21.4494 3.23691 22.6475 6.1087C20.8597 6.76763 18.886 7.1609 16.8211 7.24277ZM9.35147 6.11011C11.1407 6.7677 13.113 7.1609 15.1779 7.24277L15.1793 0C12.5556 0.497876 10.5496 3.23695 9.35147 6.11011ZM5.36505 3.97634C6.91892 2.59141 8.74288 1.50572 10.7475 0.806523C9.52394 2.09886 8.56247 3.74015 7.84036 5.4699C6.94442 5.03778 6.1139 4.53733 5.36505 3.97634ZM7.26392 7.01733C6.14067 6.48589 5.10697 5.8565 4.18429 5.14256C1.74519 7.81447 0.194101 11.3159 0 15.1767H5.89833C5.97589 12.2069 6.46424 9.42632 7.26392 7.01733ZM15.1789 8.89343C12.9217 8.80889 10.7499 8.37945 8.78146 7.65342C8.05935 9.87039 7.61675 12.4322 7.54319 15.1765L15.1788 15.1752L15.1789 8.89343ZM23.2182 7.65342C21.2444 8.37945 19.0849 8.80889 16.8207 8.89343V15.1767H24.4564C24.3828 12.4309 23.9403 9.87036 23.2182 7.65342ZM27.8156 5.14253C30.2547 7.81444 31.8058 11.3158 31.9999 15.1767H26.1016C26.0254 12.2068 25.536 9.42628 24.7376 7.01867C25.8595 6.48589 26.893 5.85647 27.8156 5.14253ZM7.84006 26.5314C6.94411 26.9635 6.11369 27.4655 5.36485 28.0251C6.91871 29.41 8.74267 30.4957 10.7473 31.1949C9.52507 29.9025 8.56217 28.2598 7.84006 26.5314ZM15.1789 24.7586V32C12.5553 31.5021 10.5506 28.7631 9.35247 25.8913C11.1403 25.2337 13.114 24.8405 15.1789 24.7586ZM22.6485 25.8913C20.862 25.2337 18.8843 24.8405 16.8221 24.7586V32C19.4444 31.5035 21.4504 28.7644 22.6485 25.8913ZM26.635 28.025C25.0811 29.41 23.2571 30.4957 21.2525 31.1949C22.4761 29.9025 23.4375 28.2612 24.1596 26.5315C25.0556 26.9636 25.8861 27.4654 26.635 28.025ZM24.7361 24.984C25.8593 25.5155 26.893 26.1449 27.8157 26.8588C30.2548 24.1869 31.8059 20.6855 32 16.8247H26.1017C26.0241 19.7945 25.5358 22.5751 24.7361 24.984ZM16.8211 23.1079C19.0837 23.1925 21.246 23.6219 23.2185 24.348C23.9406 22.131 24.3832 19.5691 24.4568 16.8249H16.8212L16.8211 23.1079ZM8.78184 24.3493C10.7529 23.6233 12.9179 23.1938 15.1793 23.1093V16.8247H7.54363C7.61718 19.5704 8.05973 22.1324 8.78184 24.3493ZM4.18436 26.8588C1.74526 24.1869 0.194169 20.6856 6.84772e-05 16.8247H5.8984C5.97462 19.7946 6.46403 22.5751 7.26238 24.9841C6.14046 25.5155 5.10704 26.1449 4.18436 26.8588Z" fill="url(#paint0_linear_547_3339)"/>
<defs>
<linearGradient id="paint0_linear_547_3339" x1="16" y1="0" x2="16" y2="32" gradientUnits="userSpaceOnUse">
<stop stop-color="#36B2F1"/>
<stop offset="1" stop-color="#1F678B"/>
</linearGradient>
</defs>
</svg>
