<svg width="29" height="32" viewBox="0 0 29 32" fill="none" xmlns="http://www.w3.org/2000/svg">
<path d="M10.3559 8.22138C9.15145 8.22138 8.17247 9.20712 8.17247 10.4199C8.17247 11.6327 9.15145 12.6184 10.3559 12.6184C11.5604 12.6184 12.5394 11.6327 12.5394 10.4199C12.5394 9.20712 11.5604 8.22138 10.3559 8.22138ZM10.3573 10.9731C10.0505 10.9731 9.80934 10.7231 9.80934 10.4213C9.80934 10.1124 10.0505 9.86954 10.3573 9.86954C10.657 9.86954 10.9053 10.1124 10.9053 10.4213C10.9053 10.7231 10.657 10.9731 10.3573 10.9731ZM15.3777 10.4199C14.7827 11.0909 14.0406 11.6255 13.2171 12.002C13.4754 11.5307 13.6367 10.9961 13.6367 10.4199C13.6367 9.84369 13.4768 9.31059 13.2186 8.83783C14.0434 9.21429 14.7841 9.74885 15.3792 10.4199H15.3777ZM7.07483 10.4199C7.07483 10.9961 7.23466 11.5292 7.49437 12.002C6.66953 11.6255 5.92885 11.0909 5.33376 10.4199C5.92885 9.74885 6.66949 9.21432 7.49437 8.83783C7.23607 9.30912 7.07625 9.84369 7.07625 10.4199H7.07483ZM10.35 2.93775C8.61036 2.93775 6.91642 3.55994 5.57908 4.68792C4.0578 5.97254 3.12594 7.7773 2.95325 9.76761C2.78057 11.7592 3.38708 13.6992 4.66432 15.2295C6.07999 16.928 8.15639 17.9022 10.3613 17.9022C12.1024 17.9022 13.7963 17.28 15.1322 16.152C16.6535 14.8674 17.5853 13.0641 17.758 11.0723C17.9307 9.08072 17.3242 7.1407 16.0484 5.6119C14.6327 3.91344 12.5563 2.93922 10.3499 2.93922L10.35 2.93775ZM16.5234 10.7576C15.0963 12.6198 12.79 13.7291 10.3554 13.7291C7.92086 13.7291 5.61452 12.6184 4.18753 10.7576C4.03483 10.5593 4.03483 10.2819 4.18753 10.0837C5.61459 8.22141 7.92086 7.11211 10.3554 7.11211C12.7915 7.11211 15.0964 8.22285 16.5234 10.0837C16.6761 10.282 16.6761 10.5593 16.5234 10.7576ZM19.4874 19.9539L18.3629 18.6046C17.9847 18.152 17.9861 17.4853 18.3672 17.0197C21.521 13.1514 21.4868 7.55887 18.2872 3.71959C14.6138 -0.683254 8.07071 -1.26078 3.70097 2.43353C1.58317 4.22538 0.283096 6.73852 0.0403327 9.51177C-0.200845 12.2865 0.645397 14.988 2.42354 17.119C5.62733 20.9612 11.0918 21.9688 15.417 19.5129C15.9379 19.2169 16.59 19.3318 16.9668 19.783L18.0913 21.1323L19.4884 19.9526L19.4874 19.9539ZM15.8369 16.9967C14.3042 18.2928 12.3591 19.0055 10.3613 19.0055C7.8311 19.0055 5.44796 17.8876 3.82369 15.9391C2.35951 14.1818 1.66308 11.956 1.86145 9.67127C2.05982 7.38657 3.13015 5.31736 4.87545 3.843C6.40955 2.5469 8.35466 1.83419 10.3511 1.83419C12.8813 1.83419 15.2644 2.95213 16.8887 4.90058C18.3529 6.65649 19.0493 8.8837 18.8509 11.1684C18.6526 13.4531 17.5822 15.5224 15.8369 16.9967ZM28.9933 28.2449C28.9548 28.6961 28.7436 29.1042 28.3996 29.3945L25.7823 31.6059C25.0717 32.2037 24.0085 32.1117 23.4134 31.3961L17.9805 24.8781C17.384 24.1625 17.4782 23.0906 18.1874 22.4899L20.8047 20.2799C21.1101 20.0213 21.4897 19.8834 21.8836 19.8834C21.9335 19.8834 21.9835 19.8862 22.0334 19.8905C22.4816 19.9293 22.8868 20.142 23.1751 20.4883L28.6065 27.0063C28.8948 27.3526 29.0332 27.7909 28.9932 28.2421L28.9933 28.2449Z" fill="url(#paint0_linear_526_1663)"/>
<defs>
<linearGradient id="paint0_linear_526_1663" x1="14.5" y1="0" x2="14.5" y2="32" gradientUnits="userSpaceOnUse">
<stop stop-color="#36B2F1"/>
<stop offset="1" stop-color="#1F678B"/>
</linearGradient>
</defs>
</svg>
