<svg width="30" height="32" viewBox="0 0 30 32" fill="none" xmlns="http://www.w3.org/2000/svg">
<path fill-rule="evenodd" clip-rule="evenodd" d="M17.5476 2.26127C21.5089 2.68629 24.9762 4.78499 27.2195 7.82663L26.8407 8.05025C26.7168 7.52522 26.3144 7.09328 25.7658 6.94604C24.961 6.72936 24.1325 7.20854 23.9166 8.01135L23.6145 9.13083C22.2067 7.58773 20.3339 6.47516 18.2134 6.0196L19.0418 5.19319C19.6294 4.60707 19.6294 3.65703 19.0418 3.07087C18.6311 2.66947 18.0588 2.54584 17.5478 2.69308L17.5476 2.26127ZM6.57531 22.0522L2.86169 24.1982C2.61384 24.337 2.28939 24.2523 2.14182 24.0051C2.00257 23.7509 2.08751 23.4342 2.33537 23.287L6.04899 21.1494L4.63287 20.7717C4.35438 20.6939 4.18451 20.4091 4.26108 20.1313C4.33906 19.8536 4.62449 19.6841 4.903 19.7605L7.54164 20.4702C7.82848 20.5397 7.99 20.8258 7.91343 21.1036L7.20884 23.744C7.13087 24.0217 6.84543 24.1912 6.56693 24.1148C6.28844 24.037 6.11857 23.7523 6.19514 23.4745L6.57388 22.0536L6.57531 22.0522ZM16.5645 27.1998V31.4833C16.5645 31.7694 16.325 32 16.0381 32C15.7443 32 15.5117 31.768 15.5117 31.4833V27.1998L14.4744 28.2415C14.2655 28.4415 13.9327 28.4415 13.7322 28.2415C13.5234 28.0332 13.5234 27.7012 13.7322 27.5012L15.6663 25.572C15.8668 25.3636 16.1996 25.3636 16.4085 25.572L18.3426 27.5012C18.5431 27.7012 18.5431 28.0332 18.3426 28.2415C18.1337 28.4415 17.8093 28.4415 17.6004 28.2415L16.563 27.1998H16.5645ZM26.0203 21.1494L29.7421 23.287C29.99 23.4342 30.0749 23.7495 29.9273 24.0051C29.7881 24.2523 29.4636 24.337 29.2158 24.1981L25.5022 22.0522L25.8809 23.4731C25.9505 23.7509 25.7876 24.037 25.5091 24.1134C25.2306 24.1912 24.9438 24.0203 24.8672 23.7425L24.1557 21.1022C24.0861 20.8244 24.249 20.5383 24.5275 20.4688L27.1745 19.7591C27.453 19.6813 27.7398 19.8521 27.8164 20.1299C27.8944 20.4077 27.7231 20.6938 27.4446 20.7702L26.0202 21.148L26.0203 21.1494ZM25.5023 9.94902L29.216 7.81145C29.4638 7.66422 29.7883 7.75034 29.9275 8.00451C30.0751 8.25174 29.9888 8.56841 29.734 8.71426L26.0203 10.8518L27.4448 11.2379C27.7233 11.3074 27.8931 11.5935 27.8166 11.8783C27.7386 12.156 27.4532 12.3186 27.1747 12.2408L24.5276 11.5379C24.2492 11.4602 24.0862 11.1754 24.1559 10.8976L24.8674 8.25725C24.9454 7.97946 25.2308 7.81695 25.5093 7.89475C25.7878 7.9642 25.9507 8.25032 25.8811 8.52809L25.5023 9.94902ZM15.5132 4.80146V0.525032C15.5132 0.231966 15.7457 0 16.0396 0C16.3264 0 16.5659 0.231952 16.5659 0.525032V4.80146L17.6033 3.76668C17.8122 3.55834 18.1366 3.55834 18.3454 3.76668C18.546 3.96669 18.546 4.29865 18.3454 4.50697L16.4114 6.43622C16.2025 6.63623 15.8697 6.63623 15.6692 6.43622L13.7351 4.50697C13.5262 4.29863 13.5262 3.96669 13.7351 3.76668C13.9356 3.55834 14.2684 3.55834 14.4773 3.76668L15.5146 4.80146H15.5132ZM15.6984 15.2129C16.1161 15.4448 16.2707 15.9615 16.0395 16.3782C15.807 16.7879 15.289 16.9421 14.8713 16.7101L7.10294 12.4419L5.71052 13.2836L0 10.1418L2.23623 8.79872L2.18193 6.1903L7.89245 9.32375L7.93144 10.9446L15.6998 15.2129L15.6984 15.2129ZM12.603 21.9352C10.0187 20.4449 8.77249 17.5351 9.28347 14.7641L13.036 16.8253C13.2448 17.5823 13.7475 18.2615 14.4827 18.6851C15.9684 19.5421 17.8719 19.0324 18.731 17.5504C19.5901 16.0684 19.0791 14.1697 17.5934 13.3127C16.5644 12.7182 15.3335 12.7807 14.3894 13.3738L10.9 11.4599C13.0123 9.06671 16.5952 8.41115 19.4732 10.0709C22.7538 11.9627 23.8762 16.1529 21.981 19.4256C20.0845 22.6979 15.8919 23.8258 12.6028 21.934L12.603 21.9352ZM28.7287 10.428C29.4792 12.1336 29.8969 14.0171 29.8969 16.0004C29.8969 17.9838 29.4792 19.8673 28.7287 21.5729L28.3416 21.3562C28.7287 20.9854 28.9139 20.4229 28.7677 19.8742C28.5504 19.0714 27.7233 18.6006 26.9185 18.8089L25.7962 19.1103C26.1053 18.1297 26.2766 17.088 26.2766 15.9991C26.2766 14.9185 26.1068 13.8684 25.7962 12.8879L26.9185 13.1893C27.7233 13.4059 28.5518 12.9268 28.7677 12.1239C28.9153 11.5753 28.7287 11.0128 28.3416 10.6503L28.7287 10.4267V10.428ZM27.2206 24.1743C24.976 27.223 21.5101 29.3229 17.5488 29.7467V29.3064C18.0598 29.4606 18.6321 29.337 19.0428 28.9286C19.6304 28.3425 19.6304 27.3925 19.0428 26.8063L18.2143 25.9882C20.335 25.5257 22.2064 24.4132 23.6155 22.8701L23.9176 23.9965C24.1348 24.7993 24.9619 25.2702 25.7668 25.0618C26.3168 24.9146 26.7192 24.4757 26.8417 23.9576L27.2206 24.1743ZM14.5299 29.7467C10.5685 29.3148 7.10121 27.223 4.858 24.1743L5.23674 23.9576C5.36067 24.4743 5.76309 24.9146 6.31169 25.0618C7.11651 25.2701 7.94499 24.7993 8.16083 23.9965L8.46299 22.87C9.86378 24.4131 11.7435 25.5257 13.8641 25.9882L13.0356 26.8063C12.448 27.3924 12.448 28.3425 13.0356 28.9286C13.438 29.3383 14.0187 29.4606 14.5297 29.3064L14.5299 29.7467ZM3.34874 21.5729C2.59821 19.8673 2.1805 17.9838 2.1805 16.0004C2.1805 14.8587 2.31975 13.7462 2.58291 12.6809L5.73258 14.4101L5.94144 14.2865C5.84815 14.8421 5.8022 15.4213 5.8022 16.0005C5.8022 17.0894 5.96512 18.1311 6.28261 19.1117L5.16032 18.8103C4.3555 18.6019 3.52701 19.0728 3.31117 19.8756C3.16358 20.4242 3.34181 20.9868 3.72891 21.3576L3.35017 21.5743L3.34874 21.5729ZM5.57663 6.93913C7.80451 4.37655 10.9624 2.64031 14.5299 2.26127V2.69322C14.0189 2.54599 13.4382 2.66961 13.0358 3.07101C12.4482 3.65713 12.4482 4.60717 13.0358 5.19333L13.8643 6.01974C11.9302 6.43643 10.2034 7.39341 8.8503 8.72956L5.57663 6.93913Z" fill="url(#paint0_linear_526_1673)"/>
<defs>
<linearGradient id="paint0_linear_526_1673" x1="15" y1="0" x2="15" y2="32" gradientUnits="userSpaceOnUse">
<stop stop-color="#36B2F1"/>
<stop offset="1" stop-color="#1F678B"/>
</linearGradient>
</defs>
</svg>
