<svg width="45" height="32" viewBox="0 0 45 32" fill="none" xmlns="http://www.w3.org/2000/svg">
<path d="M22.5 9.6C20.8725 9.6 19.3117 10.2743 18.1609 11.4745C17.0101 12.6747 16.3636 14.3026 16.3636 16C16.3636 17.6974 17.0101 19.3253 18.1609 20.5255C19.3117 21.7257 20.8725 22.4 22.5 22.4C24.1275 22.4 25.6883 21.7257 26.8391 20.5255C27.9899 19.3253 28.6364 17.6974 28.6364 16C28.6364 14.3026 27.9899 12.6747 26.8391 11.4745C25.6883 10.2743 24.1275 9.6 22.5 9.6ZM22.5 26.6667C19.7876 26.6667 17.1862 25.5429 15.2682 23.5425C13.3502 21.5421 12.2727 18.829 12.2727 16C12.2727 13.171 13.3502 10.4579 15.2682 8.45753C17.1862 6.45714 19.7876 5.33333 22.5 5.33333C25.2124 5.33333 27.8138 6.45714 29.7318 8.45753C31.6498 10.4579 32.7273 13.171 32.7273 16C32.7273 18.829 31.6498 21.5421 29.7318 23.5425C27.8138 25.5429 25.2124 26.6667 22.5 26.6667ZM22.5 0C12.2727 0 3.53864 6.63467 0 16C3.53864 25.3653 12.2727 32 22.5 32C32.7273 32 41.4614 25.3653 45 16C41.4614 6.63467 32.7273 0 22.5 0Z" fill="url(#paint0_linear_526_1648)"/>
<defs>
<linearGradient id="paint0_linear_526_1648" x1="22.5" y1="0" x2="22.5" y2="32" gradientUnits="userSpaceOnUse">
<stop stop-color="#36B2F1"/>
<stop offset="1" stop-color="#1F678B"/>
</linearGradient>
</defs>
</svg>
