<svg width="33" height="32" viewBox="0 0 33 32" fill="none" xmlns="http://www.w3.org/2000/svg">
<path d="M12.1001 8.79117C12.1001 6.81335 13.7019 5.20927 15.6806 5.20645H17.3306C19.3051 5.21607 20.9003 6.81729 20.9003 8.79117C20.8975 9.97045 19.9405 10.9243 18.7608 10.9243H14.2397C13.0599 10.9243 12.1028 9.97045 12.1001 8.79117ZM16.5001 4.17868C17.3457 4.17868 18.1074 3.67014 18.4306 2.88944C18.7551 2.10875 18.5763 1.20989 17.9782 0.611984C17.3801 0.0141101 16.4808 -0.164563 15.6998 0.159779C14.9188 0.482772 14.41 1.2442 14.41 2.0895C14.41 2.64339 14.63 3.17529 15.0219 3.56701C15.4138 3.95874 15.946 4.17868 16.5001 4.17868ZM29.4196 23.3492H27.7696C25.795 23.3588 24.1999 24.9601 24.1999 26.9339C24.2027 28.1132 25.1597 29.0671 26.3394 29.0671H30.8605C32.0403 29.0671 32.9973 28.1132 33 26.9339C33 24.9561 31.3982 23.352 29.4196 23.3492ZM26.5101 20.232C26.5101 21.0772 27.0188 21.8387 27.7998 22.1617C28.5808 22.4861 29.4801 22.3074 30.0782 21.7095C30.6763 21.1116 30.8551 20.2127 30.5306 19.432C30.2075 18.6513 29.4457 18.1428 28.6001 18.1428C27.4465 18.1428 26.5101 19.0788 26.5101 20.232ZM5.21964 23.3492H3.56964C1.59513 23.3588 0 24.9601 0 26.9339C0.00274983 28.1132 0.959765 29.0671 2.1395 29.0671H6.66059C7.84036 29.0671 8.79734 28.1132 8.80009 26.9339C8.80009 24.9561 7.19831 23.352 5.21964 23.3492ZM4.40015 22.3211C5.24576 22.3211 6.00753 21.8126 6.33066 21.0319C6.65516 20.2512 6.47641 19.3523 5.87827 18.7544C5.28015 18.1566 4.3809 17.9779 3.59988 18.3022C2.81886 18.6252 2.31011 19.3867 2.31011 20.232C2.31011 21.3851 3.24654 22.3211 4.40015 22.3211ZM4.40015 16.5926C4.5459 16.5926 4.68615 16.5348 4.78929 16.4318C4.89241 16.3287 4.95016 16.1885 4.95016 16.0428C4.93916 12.8183 6.42554 9.77129 8.97635 7.79596C9.21697 7.60904 9.2596 7.26406 9.0726 7.02354C8.8856 6.78301 8.54048 6.7404 8.29985 6.92732C5.4811 9.10992 3.83789 12.4786 3.85021 16.0425C3.85021 16.1882 3.90796 16.3284 4.01108 16.4315C4.11421 16.5346 4.25439 16.5926 4.40015 16.5926ZM22.3466 29.7872C20.4848 30.5197 18.5006 30.8922 16.5002 30.8867C14.4954 30.895 12.5071 30.5225 10.6425 29.7872C10.3524 29.6745 10.0265 29.8188 9.91378 30.1088C9.80103 30.3988 9.94541 30.7245 10.2355 30.8372C14.2642 32.3876 18.7247 32.3876 22.7534 30.8372C23.0353 30.7245 23.1741 30.4043 23.0614 30.1225C22.9486 29.8408 22.6282 29.702 22.3464 29.8147L22.3466 29.7872ZM27.5002 16.043C27.5002 16.3467 27.7463 16.5927 28.0502 16.5927C28.3541 16.5927 28.6002 16.3467 28.6002 16.043C28.6002 12.2359 26.7206 8.67333 23.5786 6.52102C23.3283 6.35334 22.99 6.41932 22.8196 6.66809C22.6491 6.91549 22.711 7.25499 22.9571 7.42817C25.7992 9.37576 27.5002 12.5986 27.5002 16.043ZM17.05 13.7944V12.6563C17.05 12.3526 16.8039 12.1066 16.5 12.1066C16.1961 12.1066 15.95 12.3526 15.95 12.6563V13.7944C15.95 14.0981 16.1961 14.3442 16.5 14.3442C16.8039 14.3442 17.05 14.0981 17.05 13.7944ZM13.5244 15.1413C13.622 15.1427 13.7169 15.1152 13.7994 15.0644C14.0606 14.9132 14.1527 14.5792 14.0029 14.3167L13.4529 13.3326C13.3016 13.0687 12.9634 12.978 12.6994 13.1291C12.4354 13.2803 12.3446 13.6184 12.4959 13.8823L13.0459 14.8664C13.1504 15.0424 13.3429 15.1454 13.5464 15.1358L13.5244 15.1413ZM10.0869 16.6807L11.0714 17.2305C11.1552 17.2786 11.2501 17.3019 11.3464 17.3019C11.5966 17.3033 11.8166 17.1356 11.8812 16.8937C11.9459 16.6518 11.8386 16.3975 11.6214 16.2739L10.6369 15.7241C10.3729 15.5729 10.0346 15.6636 9.88336 15.9275C9.73211 16.1914 9.82286 16.5295 10.0869 16.6807ZM11.0989 19.7429C11.0989 19.5972 11.0411 19.4571 10.938 19.354C10.8349 19.2509 10.6946 19.1932 10.5489 19.1932H9.43787C9.13399 19.1932 8.88787 19.4392 8.88787 19.7429C8.88787 20.0467 9.13399 20.2927 9.43787 20.2927H10.5709C10.718 20.2927 10.8583 20.2336 10.9614 20.1291C11.0645 20.0261 11.1223 19.8845 11.1209 19.7374L11.0989 19.7429ZM10.3618 23.8333C10.4581 23.8333 10.553 23.8099 10.6368 23.7618L11.6214 23.212C11.7479 23.1392 11.84 23.0182 11.8771 22.8767C11.9142 22.7351 11.8936 22.5853 11.8194 22.4588C11.6667 22.1991 11.3326 22.1111 11.0714 22.2609L10.0868 22.8107C9.83384 22.9674 9.75135 23.2959 9.89984 23.5529C9.99884 23.7261 10.1845 23.8305 10.3838 23.8278L10.3618 23.8333ZM22.935 22.8052L21.9504 22.2554C21.6892 22.1056 21.3551 22.1936 21.2024 22.4533C21.1282 22.5798 21.1076 22.7296 21.1447 22.8712C21.1818 23.0127 21.274 23.1337 21.4004 23.2065L22.385 23.7563C22.4688 23.8044 22.5637 23.8278 22.66 23.8278C22.8552 23.8264 23.0353 23.7219 23.133 23.5529C23.2829 23.2917 23.1948 22.9577 22.935 22.8052ZM23.6115 19.1877H22.473C22.1691 19.1877 21.923 19.4338 21.923 19.7375C21.923 20.0413 22.1691 20.2873 22.473 20.2873H23.6115C23.9153 20.2873 24.1615 20.0413 24.1615 19.7375C24.1615 19.4338 23.9153 19.1877 23.6115 19.1877ZM21.681 17.313C21.7758 17.313 21.868 17.2883 21.9505 17.2416L22.935 16.6918C23.199 16.5406 23.2897 16.2025 23.1385 15.9386C22.9872 15.6747 22.649 15.584 22.385 15.7352L21.4005 16.285C21.274 16.3578 21.1818 16.4787 21.1447 16.6203C21.1076 16.7619 21.1282 16.9117 21.2025 17.0381C21.3015 17.2086 21.4843 17.3144 21.681 17.313ZM19.481 15.1139C19.6776 15.1153 19.8604 15.0095 19.9595 14.839L20.5095 13.8549C20.6456 13.5938 20.5521 13.2722 20.2977 13.1237C20.042 12.9767 19.7161 13.0564 19.5579 13.3052L19.0079 14.2893C18.9323 14.4226 18.9144 14.5806 18.9612 14.7263C19.0066 14.8734 19.1111 14.993 19.2499 15.059C19.3242 15.1057 19.4094 15.1318 19.4974 15.1359L19.481 15.1139ZM18.8815 24.3941C18.9942 24.1426 19.1702 23.9241 19.393 23.7619C20.6813 22.8341 21.4458 21.3456 21.45 19.7595C21.2341 17.2251 19.1304 15.2677 16.5867 15.2322C14.043 15.1978 11.8868 17.0946 11.5996 19.6223C11.5597 21.2139 12.2885 22.7285 13.5576 23.6905C13.8092 23.8746 14.0127 24.1151 14.1516 24.3942C14.3028 24.6952 14.626 24.8684 14.9601 24.8285H15.1746C15.6105 24.8161 15.9556 24.456 15.9501 24.0203V23.8169C15.9501 23.597 15.8855 23.3826 15.7631 23.2012L14.5311 21.3649C14.3606 21.1134 14.428 20.7711 14.6796 20.6007C14.9312 20.4302 15.2736 20.4976 15.4441 20.7491L16.5771 22.4314L18.0456 20.9415C18.1419 20.8233 18.2835 20.7505 18.4361 20.7409C18.5888 20.7312 18.7387 20.7848 18.8487 20.8893C18.96 20.9951 19.0233 21.1408 19.0219 21.2934C19.0205 21.4459 18.9559 21.5916 18.8432 21.6947L17.3746 23.245C17.178 23.4388 17.0625 23.7 17.0501 23.9762V24.0202C17.0501 24.46 17.4076 24.8174 17.8476 24.8174C17.9233 24.8119 17.9975 24.8119 18.0731 24.8174C18.4073 24.8696 18.7357 24.6979 18.8815 24.3941ZM15.1745 25.917C15.0013 25.9156 14.8349 25.983 14.7125 26.1053C14.5888 26.2262 14.52 26.3926 14.52 26.5657V27.6048C14.52 27.778 14.5888 27.9443 14.7125 28.0652C14.8349 28.1876 15.0013 28.2549 15.1745 28.2535H17.8751C18.0469 28.2535 18.2119 28.1848 18.3343 28.0639C18.4553 27.9415 18.5241 27.7766 18.5241 27.6048V26.5657C18.5241 26.207 18.2339 25.917 17.875 25.917L15.1745 25.917Z" fill="url(#paint0_linear_526_1694)"/>
<defs>
<linearGradient id="paint0_linear_526_1694" x1="16.5" y1="0" x2="16.5" y2="32" gradientUnits="userSpaceOnUse">
<stop stop-color="#36B2F1"/>
<stop offset="1" stop-color="#1F678B"/>
</linearGradient>
</defs>
</svg>
